<?xml version="1.0" encoding="UTF-8"?>
<svg version="1.1" xmlns="http://www.w3.org/2000/svg" width="128" height="128">
<path d="M0 0 C2.70104925 1.38845336 5.26359739 2.91523842 7.84521484 4.51464844 C9.85037791 5.70312251 11.8569622 6.88920107 13.86474609 8.07324219 C14.93031738 8.70858887 15.99588867 9.34393555 17.09375 9.99853516 C22.70233784 13.28660263 28.40494866 16.40117893 34.10726929 19.52294922 C49.51506473 27.95885947 49.51506473 27.95885947 56.53271484 32.01464844 C57.31678454 43.09616679 57.31678454 43.09616679 54.34521484 46.57714844 C53.41708984 47.05152344 52.48896484 47.52589844 51.53271484 48.01464844 C47.30835518 50.28137801 44.49922345 52.58542203 42.53271484 57.01464844 C41.93995098 60.38797396 41.92441538 63.70877412 41.93115234 67.12792969 C41.91829697 68.5814106 41.91829697 68.5814106 41.90518188 70.06425476 C41.89372669 72.10912969 41.8926717 74.15408609 41.90136719 76.19897461 C41.90767515 79.3075879 41.86078968 82.41236655 41.81005859 85.52050781 C41.80551051 87.51464368 41.8041066 89.50878969 41.80615234 91.50292969 C41.78773285 92.42197586 41.76931335 93.34102203 41.75033569 94.28791809 C41.84598257 101.05120394 43.73378461 106.10702272 48.53271484 111.01464844 C52.2021711 112.1494333 52.2021711 112.1494333 55.53271484 112.01464844 C56.53271484 113.01464844 56.53271484 113.01464844 56.66552734 115.92089844 C56.66294922 117.10683594 56.66037109 118.29277344 56.65771484 119.51464844 C56.66029297 120.70058594 56.66287109 121.88652344 56.66552734 123.10839844 C56.53271484 126.01464844 56.53271484 126.01464844 55.53271484 127.01464844 C53.9027993 127.11287937 52.26861498 127.14096793 50.63574219 127.14163208 C49.57562927 127.1444519 48.51551636 127.14727173 47.42327881 127.150177 C45.66373871 127.14714066 45.66373871 127.14714066 43.86865234 127.14404297 C42.64116272 127.14579529 41.4136731 127.14754761 40.14898682 127.14935303 C36.77303206 127.15301127 33.39713823 127.15213808 30.02118683 127.14897394 C26.495569 127.14645 22.96995386 127.14878797 19.44433594 127.15036011 C13.52261892 127.1521817 7.60091435 127.14977575 1.67919922 127.14501953 C-5.17645325 127.13957693 -12.03207599 127.14133959 -18.88772774 127.14684594 C-24.76372597 127.15137735 -30.63971523 127.15202748 -36.51571465 127.14940727 C-40.02962609 127.14784465 -43.54352353 127.14765031 -47.05743408 127.15094376 C-50.97270879 127.15435676 -54.88794993 127.14963227 -58.80322266 127.14404297 C-59.97624939 127.1460672 -61.14927612 127.14809143 -62.35784912 127.150177 C-63.94801849 127.14594727 -63.94801849 127.14594727 -65.5703125 127.14163208 C-66.49725922 127.14125505 -67.42420593 127.14087803 -68.37924194 127.14048958 C-70.46728516 127.01464844 -70.46728516 127.01464844 -71.46728516 126.01464844 C-71.56621455 123.84984047 -71.59699616 121.68171059 -71.59228516 119.51464844 C-71.59486328 118.32871094 -71.59744141 117.14277344 -71.60009766 115.92089844 C-71.46728516 113.01464844 -71.46728516 113.01464844 -70.46728516 112.01464844 C-69.41541016 112.01464844 -68.36353516 112.01464844 -67.27978516 112.01464844 C-62.33194068 110.71685316 -61.35869685 108.82206863 -58.72229004 104.62942505 C-56.6465503 100.30466441 -56.60745235 96.30476135 -56.67041016 91.57324219 C-56.6646698 90.60612808 -56.65892944 89.63901398 -56.65301514 88.64259338 C-56.64895702 86.61139565 -56.65985431 84.58011768 -56.68505859 82.54907227 C-56.71724789 79.45573005 -56.68527833 76.36759724 -56.64697266 73.27441406 C-56.65093726 71.29067868 -56.65862412 69.30694652 -56.67041016 67.32324219 C-56.65826477 66.40844589 -56.64611938 65.4936496 -56.63360596 64.5511322 C-56.77822653 57.8887673 -58.68332065 53.70551293 -63.46728516 49.01464844 C-66.56743445 47.1289615 -66.56743445 47.1289615 -69.46728516 46.01464844 C-71.46728516 44.01464844 -71.46728516 44.01464844 -71.66259766 41.19433594 C-71.63939453 40.10378906 -71.61619141 39.01324219 -71.59228516 37.88964844 C-71.57423828 36.79394531 -71.55619141 35.69824219 -71.53759766 34.56933594 C-71.51439453 33.72628906 -71.49119141 32.88324219 -71.46728516 32.01464844 C-67.70139641 29.86749796 -63.929396 27.7316405 -60.15136719 25.60595703 C-58.86740752 24.88148093 -57.58515885 24.15396366 -56.3046875 23.42333984 C-54.46227905 22.37278111 -52.61396469 21.33336558 -50.76416016 20.29589844 C-49.65395508 19.66748047 -48.54375 19.0390625 -47.39990234 18.39160156 C-44.46728516 17.01464844 -44.46728516 17.01464844 -40.46728516 17.01464844 C-40.79728516 18.66464844 -41.12728516 20.31464844 -41.46728516 22.01464844 C-49.38728516 26.46964844 -49.38728516 26.46964844 -57.46728516 31.01464844 C-24.46728516 31.01464844 8.53271484 31.01464844 42.53271484 31.01464844 C32.96271484 25.73464844 23.39271484 20.45464844 13.53271484 15.01464844 C2.09521484 8.38964844 2.09521484 8.38964844 -2.52587891 5.66308594 C-5.33377682 4.28767454 -6.18200885 3.97822203 -9.37353516 4.38574219 C-14.73831272 7.21037886 -19.994685 10.20102941 -25.21142578 13.29003906 C-26.07058594 13.78052734 -26.92974609 14.27101563 -27.81494141 14.77636719 C-28.58845947 15.22971436 -29.36197754 15.68306152 -30.15893555 16.15014648 C-32.98835026 17.20979297 -34.60649469 16.84326285 -37.46728516 16.01464844 C-35.2230846 10.21187706 -29.62298071 8.18599523 -24.46728516 5.26464844 C-23.46310547 4.66265625 -22.45892578 4.06066406 -21.42431641 3.44042969 C-14.17869056 -0.69323266 -8.09004025 -3.23089278 0 0 Z M-67.46728516 37.01464844 C-67.02198535 41.64484831 -67.02198535 41.64484831 -65.46728516 43.01464844 C-63.96642279 43.11472878 -62.46087283 43.1454022 -60.9566803 43.14836121 C-59.49489098 43.15475868 -59.49489098 43.15475868 -58.00357056 43.1612854 C-56.3866481 43.16060562 -56.3866481 43.16060562 -54.73706055 43.15991211 C-53.04453911 43.16495003 -53.04453911 43.16495003 -51.31782532 43.17008972 C-47.56685299 43.17963272 -43.81592514 43.18154449 -40.06494141 43.18261719 C-37.47041302 43.18582736 -34.87588481 43.18919124 -32.28135681 43.19270325 C-26.83462019 43.19870286 -21.38790138 43.20058495 -15.94116211 43.19995117 C-9.63877222 43.19935022 -3.33646787 43.20990377 2.96590036 43.22569484 C9.02020445 43.24032593 15.07446194 43.2439398 21.12878609 43.24334145 C23.70889193 43.2445257 26.28899832 43.24897217 28.86909294 43.25667381 C32.47050042 43.26641738 36.07168502 43.26361802 39.6730957 43.25756836 C40.74901978 43.26318787 41.82494385 43.26880737 42.93347168 43.27459717 C43.91081772 43.27040268 44.88816376 43.26620819 45.89512634 43.2618866 C46.74740783 43.26243136 47.59968931 43.26297613 48.47779751 43.26353741 C50.75675507 43.20191094 50.75675507 43.20191094 52.53271484 41.01464844 C52.53271484 39.69464844 52.53271484 38.37464844 52.53271484 37.01464844 C12.93271484 37.01464844 -26.66728516 37.01464844 -67.46728516 37.01464844 Z M-56.46728516 48.01464844 C-55.01439529 52.59884473 -55.01439529 52.59884473 -53.46728516 54.01464844 C-51.34720399 54.19278198 -49.21936904 54.28254072 -47.09228516 54.32714844 C-45.34818359 54.38322266 -45.34818359 54.38322266 -43.56884766 54.44042969 C-40.3934408 54.32065657 -40.3934408 54.32065657 -38.55322266 52.12011719 C-37.31448819 50.11323499 -37.31448819 50.11323499 -37.46728516 48.01464844 C-43.73728516 48.01464844 -50.00728516 48.01464844 -56.46728516 48.01464844 Z M-36.45834351 54.39553833 C-38.16466501 58.82497574 -38.34485304 62.93092171 -38.29931641 67.63964844 C-38.30742844 68.62658691 -38.31554047 69.61352539 -38.32389832 70.63037109 C-38.33231399 72.70442015 -38.3256029 74.77858087 -38.30444336 76.85253906 C-38.27983922 80.00771484 -38.32462886 83.15676541 -38.37548828 86.31152344 C-38.37511779 88.3375702 -38.37069578 90.3636211 -38.36181641 92.38964844 C-38.37912308 93.32115723 -38.39642975 94.25266602 -38.41426086 95.21240234 C-38.28268023 101.43766799 -36.77508069 105.58016965 -32.64286804 110.30462646 C-28.70193369 113.40222591 -24.82604001 113.3033231 -19.96728516 113.20996094 C-18.97277344 113.21857147 -17.97826172 113.22718201 -16.95361328 113.23605347 C-14.85915985 113.24215489 -12.76453284 113.2257057 -10.67041016 113.18798828 C-7.47379584 113.13974669 -4.28854803 113.18754903 -1.09228516 113.24511719 C0.94940648 113.23916946 2.99109107 113.22763742 5.03271484 113.20996094 C6.45487305 113.23728806 6.45487305 113.23728806 7.90576172 113.26516724 C12.03718821 113.13462358 14.54869648 112.88098215 17.7157135 110.09272766 C22.09330215 104.72896278 23.51827684 100.8240027 22.97021484 93.95214844 C22.93863281 93.18193359 22.90705078 92.41171875 22.87451172 91.61816406 C22.7932272 89.74862021 22.66771524 87.88108254 22.53271484 86.01464844 C23.85271484 86.01464844 25.17271484 86.01464844 26.53271484 86.01464844 C26.53271484 90.96464844 26.53271484 95.91464844 26.53271484 101.01464844 C30.16271484 101.01464844 33.79271484 101.01464844 37.53271484 101.01464844 C37.53271484 86.82464844 37.53271484 72.63464844 37.53271484 58.01464844 C33.90271484 58.01464844 30.27271484 58.01464844 26.53271484 58.01464844 C26.20271484 65.60464844 25.87271484 73.19464844 25.53271484 81.01464844 C24.87271484 81.01464844 24.21271484 81.01464844 23.53271484 81.01464844 C23.53384277 80.33474854 23.5349707 79.65484863 23.53613281 78.9543457 C23.52391187 75.82764522 23.46611373 72.70331405 23.40771484 69.57714844 C23.41029297 68.50787109 23.41287109 67.43859375 23.41552734 66.33691406 C23.38974609 65.28310547 23.36396484 64.22929688 23.33740234 63.14355469 C23.32169189 61.70604858 23.32169189 61.70604858 23.30566406 60.23950195 C22.13163677 55.34129396 20.22438411 51.500219 16.53271484 48.01464844 C12.90218943 46.7162312 9.48550872 46.74961144 5.65771484 46.81933594 C4.61502441 46.8107254 3.57233398 46.80211487 2.49804688 46.79324341 C0.29926652 46.78713431 -1.89967842 46.80363716 -4.09814453 46.84130859 C-7.45928214 46.88953361 -10.80960794 46.84176813 -14.17041016 46.78417969 C-16.31105897 46.79012727 -18.45170107 46.801659 -20.59228516 46.81933594 C-22.09251221 46.79200882 -22.09251221 46.79200882 -23.62304688 46.76412964 C-30.25118717 46.96391854 -33.21467859 48.51846041 -36.45834351 54.39553833 Z M22.53271484 48.01464844 C23.19271484 49.33464844 23.85271484 50.65464844 24.53271484 52.01464844 C24.86271484 52.67464844 25.19271484 53.33464844 25.53271484 54.01464844 C27.63575961 54.12265074 29.74038394 54.20023831 31.84521484 54.26464844 C33.01697266 54.31105469 34.18873047 54.35746094 35.39599609 54.40527344 C38.60294676 54.32901644 38.60294676 54.32901644 40.45068359 52.12402344 C41.68485384 50.11317771 41.68485384 50.11317771 41.53271484 48.01464844 C35.26271484 48.01464844 28.99271484 48.01464844 22.53271484 48.01464844 Z M-52.46728516 58.01464844 C-52.46728516 72.20464844 -52.46728516 86.39464844 -52.46728516 101.01464844 C-48.83728516 101.01464844 -45.20728516 101.01464844 -41.46728516 101.01464844 C-41.46728516 86.82464844 -41.46728516 72.63464844 -41.46728516 58.01464844 C-45.09728516 58.01464844 -48.72728516 58.01464844 -52.46728516 58.01464844 Z M-57.46728516 112.01464844 C-50.53728516 112.01464844 -43.60728516 112.01464844 -36.46728516 112.01464844 C-39.59877601 105.87140176 -39.59877601 105.87140176 -43.56103516 105.21777344 C-44.68509766 105.23324219 -45.80916016 105.24871094 -46.96728516 105.26464844 C-48.65337891 105.24144531 -48.65337891 105.24144531 -50.37353516 105.21777344 C-54.3357943 105.87140176 -54.3357943 105.87140176 -57.46728516 112.01464844 Z M21.53271484 112.01464844 C28.46271484 112.01464844 35.39271484 112.01464844 42.53271484 112.01464844 C39.40122399 105.87140176 39.40122399 105.87140176 35.43896484 105.21777344 C34.31490234 105.23324219 33.19083984 105.24871094 32.03271484 105.26464844 C30.34662109 105.24144531 30.34662109 105.24144531 28.62646484 105.21777344 C24.6642057 105.87140176 24.6642057 105.87140176 21.53271484 112.01464844 Z M-67.46728516 116.01464844 C-67.46728516 118.32464844 -67.46728516 120.63464844 -67.46728516 123.01464844 C-27.86728516 123.01464844 11.73271484 123.01464844 52.53271484 123.01464844 C52.53271484 120.70464844 52.53271484 118.39464844 52.53271484 116.01464844 C12.93271484 116.01464844 -26.66728516 116.01464844 -67.46728516 116.01464844 Z " fill="#000000" transform="translate(71.46728515625,0.9853515625)"/>
<path d="M0 0 C4.93880639 3.7592254 8.53855204 8.15364664 9.75 14.33203125 C10.49113472 21.19910768 9.92256231 26.68679989 5.75 32.33203125 C1.41362485 37.10110327 -2.71178139 40.43020799 -9.25 41.33203125 C-16.11527658 41.29918304 -22.00222079 40.49741437 -27.09765625 35.53125 C-32.65453886 29.47230818 -34.70413276 25.08068486 -34.49609375 16.8203125 C-33.82919856 10.07726113 -30.12779559 4.80527034 -25.25 0.33203125 C-17.76830793 -4.30661783 -7.64271837 -4.50601937 0 0 Z M-24.11328125 5.9921875 C-28.40210328 10.81327384 -29.57113438 14.64807258 -29.45703125 21.05859375 C-29.00533948 26.01868068 -26.61466127 29.23353583 -23.1875 32.64453125 C-18.90252482 36.08700603 -14.6499586 36.68912529 -9.25 36.33203125 C-3.19149745 34.71643057 0.30857064 31.41333635 3.75 26.33203125 C5.2802087 21.74140516 5.6913765 16.95662987 4.03125 12.328125 C1.55059399 7.69690027 -1.33879256 4.47835465 -6.25390625 2.54296875 C-12.85834607 0.63629569 -18.85515571 1.3072748 -24.11328125 5.9921875 Z " fill="#000000" transform="translate(76.25,61.66796875)"/>
<path d="M0 0 C0.99 0.33 1.98 0.66 3 1 C3 1.66 3 2.32 3 3 C3.61875 3.12375 4.2375 3.2475 4.875 3.375 C7 4 7 4 9 6 C9.125 8.625 9.125 8.625 9 11 C7.68 11 6.36 11 5 11 C4.67 10.67 4.34 10.34 4 10 C3.67 10.99 3.34 11.98 3 13 C4.2065625 13.433125 4.2065625 13.433125 5.4375 13.875 C8 15 8 15 9 17 C9.46312888 24.29427981 9.46312888 24.29427981 7.6875 27 C6 28 6 28 3 28 C3 28.99 3 29.98 3 31 C1.68 31 0.36 31 -1 31 C-1 30.01 -1 29.02 -1 28 C-2.65 27.67 -4.3 27.34 -6 27 C-6.33 24.69 -6.66 22.38 -7 20 C-5.35 20.33 -3.7 20.66 -2 21 C-1.67 20.01 -1.34 19.02 -1 18 C-1.61875 17.87625 -2.2375 17.7525 -2.875 17.625 C-5 17 -5 17 -7 15 C-7.30078125 12.94140625 -7.30078125 12.94140625 -7.3125 10.5625 C-7.32925781 9.78003906 -7.34601562 8.99757813 -7.36328125 8.19140625 C-6.91522445 5.48861203 -6.19670758 4.59994393 -4 3 C-3.01 3 -2.02 3 -1 3 C-0.67 2.01 -0.34 1.02 0 0 Z M-2 8 C-2 9.65 -2 11.3 -2 13 C-1.67 13 -1.34 13 -1 13 C-1 11.35 -1 9.7 -1 8 C-1.33 8 -1.66 8 -2 8 Z M3 18 C3 19.65 3 21.3 3 23 C3.33 23 3.66 23 4 23 C4 21.35 4 19.7 4 18 C3.67 18 3.34 18 3 18 Z " fill="#000000" transform="translate(63,65)"/>
<path d="M0 0 C3.55247432 0.87379409 4.94828114 2.4927342 6.9375 5.4765625 C7.61389058 8.49936996 7.39308841 10.28744363 6.9375 13.4765625 C5.06734906 15.90775873 3.65611655 17.11725423 0.9375 18.4765625 C-2.9711795 18.73147638 -5.77192498 18.70945269 -9.0625 16.4765625 C-11.52469772 12.78326592 -11.85448683 9.7616281 -11.0625 5.4765625 C-8.05531939 0.96579158 -5.26030565 -0.3785826 0 0 Z M-4.0625 5.4765625 C-4.7225 6.1365625 -5.3825 6.7965625 -6.0625 7.4765625 C-5.74208603 10.07936818 -5.74208603 10.07936818 -5.0625 12.4765625 C-2.66530568 13.15614853 -2.66530568 13.15614853 -0.0625 13.4765625 C0.5975 12.8165625 1.2575 12.1565625 1.9375 11.4765625 C1.61708603 8.87375682 1.61708603 8.87375682 0.9375 6.4765625 C-1.45969432 5.79697647 -1.45969432 5.79697647 -4.0625 5.4765625 Z " fill="#000000" transform="translate(66.0625,10.5234375)"/>
</svg>
