<?xml version="1.0" encoding="UTF-8"?>
<svg version="1.1" xmlns="http://www.w3.org/2000/svg" width="128" height="128">
<path d="M0 0 C3.2889953 2.64724012 3.88405799 4.29146548 4.5625 8.4375 C3.82815674 13.08834063 2.24591892 14.67293311 -1 18 C0.54327774 19.70509716 2.1103675 21.3886674 3.6875 23.0625 C4.55761719 24.00222656 5.42773438 24.94195313 6.32421875 25.91015625 C8.77385932 28.30290971 8.77385932 28.30290971 11.5703125 27.82421875 C12.77300781 27.41623047 12.77300781 27.41623047 14 27 C16.77489501 26.74000984 19.1861327 26.81548411 22 27 C24 30 24 30 23.9375 32.5 C22.65799727 35.91200727 21.28656968 36.49960949 18 38 C13.53591671 39.54213786 9.72347254 40.3295446 5 40 C4.01 39.505 4.01 39.505 3 39 C2.505 39.99 2.505 39.99 2 41 C2.74765625 41.08636719 3.4953125 41.17273437 4.265625 41.26171875 C5.25046875 41.40222656 6.2353125 41.54273438 7.25 41.6875 C8.71179687 41.87892578 8.71179687 41.87892578 10.203125 42.07421875 C14.02238586 43.33841543 15.07423754 44.4499379 17 48 C17.56835299 51.55593553 17.55875969 55.03086582 17.5 58.625 C17.51546875 59.57890625 17.5309375 60.5328125 17.546875 61.515625 C17.54171875 62.43085937 17.5365625 63.34609375 17.53125 64.2890625 C17.52673828 65.12131348 17.52222656 65.95356445 17.51757812 66.81103516 C17 69 17 69 15.16210938 70.80224609 C13 72 13 72 9.875 71.875 C7 71 7 71 5 68 C4.8046875 64.64453125 4.8046875 64.64453125 4.875 60.8125 C4.89304688 59.54019531 4.91109375 58.26789062 4.9296875 56.95703125 C4.95289063 55.98121094 4.97609375 55.00539062 5 54 C3.88625 54.020625 2.7725 54.04125 1.625 54.0625 C-2 54 -2 54 -4 53 C-4 54.11375 -4 55.2275 -4 56.375 C-4.7567949 62.57194374 -9.01914519 66.48396582 -13 71 C-13.54527344 71.7115625 -14.09054688 72.423125 -14.65234375 73.15625 C-17.03930055 76.24599779 -18.38131183 77.77727226 -22.125 79.125 C-25 79 -25 79 -27.375 77.9375 C-29 76 -29 76 -29.37109375 73.23046875 C-28.89479307 69.08414598 -27.42897024 67.47937619 -24.6875 64.375 C-23.88699219 63.45460937 -23.08648437 62.53421875 -22.26171875 61.5859375 C-20.97195765 60.11128837 -19.68183827 58.63695199 -18.390625 57.16357422 C-16.70428205 54.53991354 -16.57839694 52.89685483 -16.48828125 49.796875 C-16.45283203 48.8171875 -16.41738281 47.8375 -16.38085938 46.828125 C-16.35830078 45.81234375 -16.33574219 44.7965625 -16.3125 43.75 C-16.27833984 42.71875 -16.24417969 41.6875 -16.20898438 40.625 C-16.12661907 38.08344188 -16.05743166 35.54222374 -16 33 C-16.34933594 33.63808594 -16.69867188 34.27617188 -17.05859375 34.93359375 C-17.51363281 35.75988281 -17.96867187 36.58617187 -18.4375 37.4375 C-18.88996094 38.26121094 -19.34242187 39.08492187 -19.80859375 39.93359375 C-21 42 -21 42 -22 43 C-24.9375 43.1875 -24.9375 43.1875 -28 43 C-30 41 -30 41 -30.5 38 C-30.2924107 31.78529528 -26.37493584 26.29482888 -22.03125 22.09765625 C-18.26198874 19.13298729 -14.70272861 17.17568215 -10 16 C-10.474375 15.62875 -10.94875 15.2575 -11.4375 14.875 C-13.63018731 12.24377523 -13.86642992 10.40603701 -14 7 C-11.12569568 -0.25419663 -7.43574117 -1.14903993 0 0 Z M-9 6 C-8.67 7.98 -8.34 9.96 -8 12 C-6.21858253 12.86358623 -6.21858253 12.86358623 -4 13 C-1.72855926 11.14567913 -1.72855926 11.14567913 0 9 C-1.28288757 6.44496043 -1.28288757 6.44496043 -3 4 C-6.18490007 3.7226499 -6.18490007 3.7226499 -9 6 Z M-18 25 C-21.93998908 29.02953429 -24.03158025 32.81994803 -26 38 C-25.34 38 -24.68 38 -24 38 C-22.40111319 35.56512381 -21.03870019 33.03094039 -19.6328125 30.48046875 C-17.47809234 27.20714985 -15.51061613 25.46157715 -11.75 24.3125 C-11.1725 24.209375 -10.595 24.10625 -10 24 C-10.0721875 24.75023437 -10.144375 25.50046875 -10.21875 26.2734375 C-10.68031691 31.36349481 -11.09904768 36.4527638 -11.25 41.5625 C-11.27578125 42.34753906 -11.3015625 43.13257812 -11.328125 43.94140625 C-10.90439624 46.5997998 -10.07021446 47.32092667 -8 49 C-6.08034352 49.49823096 -6.08034352 49.49823096 -3.98828125 49.51171875 C-3.23095703 49.54716797 -2.47363281 49.58261719 -1.69335938 49.61914062 C-0.90767578 49.64169922 -0.12199219 49.66425781 0.6875 49.6875 C1.48478516 49.72166016 2.28207031 49.75582031 3.10351562 49.79101562 C5.06851904 49.87338104 7.03423696 49.93837067 9 50 C8.98839844 50.80824219 8.97679687 51.61648437 8.96484375 52.44921875 C8.95582031 53.51785156 8.94679687 54.58648437 8.9375 55.6875 C8.92589844 56.74324219 8.91429687 57.79898438 8.90234375 58.88671875 C8.99134575 61.72410262 9.35060162 64.2438919 10 67 C10.99 66.67 11.98 66.34 13 66 C12.96701098 63.22592351 12.89990921 60.45994071 12.8125 57.6875 C12.80669922 56.90181641 12.80089844 56.11613281 12.79492188 55.30664062 C12.68419947 50.66943447 12.68419947 50.66943447 10.01171875 47.08203125 C6.07165015 45.66646834 2.1122962 44.76153633 -2 44 C-1.95399658 43.44014404 -1.90799316 42.88028809 -1.8605957 42.3034668 C-1.66138193 39.76579383 -1.48669009 37.22700811 -1.3125 34.6875 C-1.23966797 33.80642578 -1.16683594 32.92535156 -1.09179688 32.01757812 C-1.03701172 31.17001953 -0.98222656 30.32246094 -0.92578125 29.44921875 C-0.86817627 28.66893311 -0.81057129 27.88864746 -0.7512207 27.0847168 C-0.83140429 24.92211774 -0.83140429 24.92211774 -2.30151367 23.28051758 C-7.71214623 19.20135015 -13.16936358 21.16322657 -18 25 Z M3 30 C3 30.99 3 31.98 3 33 C6.27060593 35.18040395 6.76374489 35.22083539 10.4375 34.75 C11.19933594 34.66234375 11.96117187 34.5746875 12.74609375 34.484375 C15.09438552 33.97971611 16.9079315 33.16278978 19 32 C15.79358482 30.39679241 12.86569728 31.92821774 9.5078125 32.8203125 C7 33 7 33 4.6796875 31.5546875 C4.12539063 31.04164062 3.57109375 30.52859375 3 30 Z M-12 52 C-12.03996094 53.01191406 -12.07992188 54.02382813 -12.12109375 55.06640625 C-12.81687306 59.93686139 -15.684364 62.57480691 -19.0625 65.9375 C-19.63033203 66.52595703 -20.19816406 67.11441406 -20.78320312 67.72070312 C-22.17566101 69.15996632 -23.58608028 70.58181506 -25 72 C-24.67 72.66 -24.34 73.32 -24 74 C-19.70806323 72.40963863 -17.18150273 69.14720323 -14.3125 65.75 C-13.81427734 65.18925781 -13.31605469 64.62851563 -12.80273438 64.05078125 C-9.74002069 60.45198878 -8.31748848 57.87307896 -8 53 C-9.32 52.67 -10.64 52.34 -12 52 Z " fill="#000000" transform="translate(32,2)"/>
<path d="M0 0 C-0.41830366 7.22124213 -0.95461111 14.04567778 -3 21 C-4.00804688 20.69191406 -5.01609375 20.38382813 -6.0546875 20.06640625 C-9.82071907 19.62417078 -9.82071907 19.62417078 -11.80957031 21.22998047 C-13.67297013 23.06599254 -15.41078438 24.96144266 -17.125 26.9375 C-23.20605017 33.81660556 -23.20605017 33.81660556 -26.72265625 34.62890625 C-29.38571506 33.89348178 -30.47959743 33.04603077 -32.3125 31 C-32.82425781 30.443125 -33.33601563 29.88625 -33.86328125 29.3125 C-34.23839844 28.879375 -34.61351562 28.44625 -35 28 C-39.32553494 29.51269441 -42.92814276 31.79248355 -46.69140625 34.3515625 C-47.97834695 35.21119007 -49.26546154 36.07055737 -50.55273438 36.9296875 C-52.56515734 38.28033339 -54.57554043 39.63382495 -56.58276367 40.9921875 C-58.53037382 42.30754309 -60.48527656 43.61142324 -62.44140625 44.9140625 C-63.03941544 45.3233902 -63.63742462 45.7327179 -64.2535553 46.15444946 C-67.56085293 48.34660163 -68.89946163 49 -73 49 C-72.47955936 45.07185321 -71.61432459 43.11501518 -68.81298828 40.32714844 C-67.80656784 39.31149811 -67.80656784 39.31149811 -66.77981567 38.27532959 C-66.05067963 37.56056458 -65.32154358 36.84579956 -64.5703125 36.109375 C-63.82417694 35.36415588 -63.07804138 34.61893677 -62.30929565 33.85113525 C-60.73191544 32.27979122 -59.1496831 30.71330507 -57.56298828 29.15136719 C-55.13063175 26.75554715 -52.71468561 24.34408359 -50.30078125 21.9296875 C-48.76656607 20.40530228 -47.23144024 18.88183292 -45.6953125 17.359375 C-44.97022491 16.63651306 -44.24513733 15.91365112 -43.49807739 15.16888428 C-42.82082611 14.5043927 -42.14357483 13.83990112 -41.44580078 13.15527344 C-40.85147247 12.56856873 -40.25714417 11.98186401 -39.64480591 11.37738037 C-38 10 -38 10 -35 9 C-32.95703125 10.43359375 -32.95703125 10.43359375 -30.8125 12.4375 C-29.73935547 13.42556641 -29.73935547 13.42556641 -28.64453125 14.43359375 C-28.10183594 14.95050781 -27.55914062 15.46742187 -27 16 C-25.79082837 15.17679837 -24.60800746 14.31480794 -23.4375 13.4375 C-22.77621094 12.96183594 -22.11492187 12.48617188 -21.43359375 11.99609375 C-19.60641859 9.90402901 -19.60641859 9.90402901 -20.28515625 6.28515625 C-20.52105469 5.20105469 -20.75695312 4.11695313 -21 3 C-18.81462633 2.49078672 -16.62657569 1.99305563 -14.4375 1.5 C-12.61025391 1.08234375 -12.61025391 1.08234375 -10.74609375 0.65625 C-7.07777293 0.01362446 -3.71497397 -0.11474823 0 0 Z M-14 6 C-13.89171875 6.70382813 -13.7834375 7.40765625 -13.671875 8.1328125 C-14.13687956 12.19606663 -16.42918345 14.16184821 -19.25 16.875 C-19.74113281 17.38546875 -20.23226562 17.8959375 -20.73828125 18.421875 C-24.36118883 21.99647714 -24.36118883 21.99647714 -27.125 22.01171875 C-30.54521681 20.16622676 -33.12251159 17.60080683 -36 15 C-40.29 19.29 -44.58 23.58 -49 28 C-44.71256628 28 -42.60964536 25.71887243 -39.25390625 23.21484375 C-37 22 -37 22 -35.09350586 22.23266602 C-32.64120942 23.13150773 -31.182432 24.31587877 -29.25 26.0625 C-28.32960938 26.88427734 -28.32960938 26.88427734 -27.390625 27.72265625 C-26.93171875 28.14417969 -26.4728125 28.56570312 -26 29 C-25.57178955 28.54560547 -25.1435791 28.09121094 -24.70239258 27.62304688 C-22.75233701 25.56897079 -20.78290389 23.53455657 -18.8125 21.5 C-17.80219727 20.42685547 -17.80219727 20.42685547 -16.77148438 19.33203125 C-15.78051758 18.31689453 -15.78051758 18.31689453 -14.76953125 17.28125 C-14.16729736 16.65283203 -13.56506348 16.02441406 -12.94458008 15.37695312 C-10.4903637 13.63912759 -8.94246185 13.73351289 -6 14 C-5.67 11.03 -5.34 8.06 -5 5 C-8.27275026 5 -10.846632 5.29925156 -14 6 Z " fill="#000000" transform="translate(126,2)"/>
<path d="M0 0 C8.25 0 16.5 0 25 0 C25 28.38 25 56.76 25 86 C16.75 86 8.5 86 0 86 C-1.76328472 84.23671528 -1.12615644 81.90482856 -1.13552856 79.55593872 C-1.13350433 78.77564301 -1.1314801 77.99534729 -1.12939453 77.19140625 C-1.13114685 76.37356659 -1.13289917 75.55572693 -1.13470459 74.71310425 C-1.13912385 71.9962149 -1.13618486 69.27939007 -1.1328125 66.5625 C-1.13348552 64.68302396 -1.13445553 62.80354801 -1.13571167 60.92407227 C-1.13718874 56.97964654 -1.13503379 53.03524342 -1.13037109 49.09082031 C-1.1246738 44.02287497 -1.12795276 38.95498258 -1.13394356 33.88703918 C-1.13754892 30.00443113 -1.1364107 26.12183572 -1.13381577 22.23922729 C-1.13314643 20.37002557 -1.13397516 18.50082272 -1.13629532 16.63162231 C-1.13882143 14.02391496 -1.13498184 11.41629459 -1.12939453 8.80859375 C-1.13141876 8.02829803 -1.13344299 7.24800232 -1.13552856 6.44406128 C-1.11426253 1.11426253 -1.11426253 1.11426253 0 0 Z M4 4 C4 29.74 4 55.48 4 82 C9.61 82 15.22 82 21 82 C21 56.26 21 30.52 21 4 C15.39 4 9.78 4 4 4 Z " fill="#000000" transform="translate(101,40)"/>
<path d="M0 0 C1.12019531 -0.00128906 2.24039063 -0.00257812 3.39453125 -0.00390625 C4.57402344 -0.00003906 5.75351563 0.00382812 6.96875 0.0078125 C8.73798828 0.00201172 8.73798828 0.00201172 10.54296875 -0.00390625 C12.22326172 -0.00197266 12.22326172 -0.00197266 13.9375 0 C14.97326172 0.00112793 16.00902344 0.00225586 17.07617188 0.00341797 C19.46875 0.1328125 19.46875 0.1328125 20.46875 1.1328125 C20.56818972 3.21356659 20.59674596 5.29773098 20.59814453 7.38085938 C20.59989685 8.03288834 20.60164917 8.6849173 20.60345459 9.35670471 C20.60787204 11.52168403 20.60493551 13.68658229 20.6015625 15.8515625 C20.60223557 17.34989437 20.60320562 18.84822613 20.60446167 20.34655762 C20.6059385 23.49065183 20.60378458 26.63471767 20.59912109 29.77880859 C20.5934238 33.81767789 20.59670289 37.85648074 20.60269356 41.8953476 C20.60629958 44.9904633 20.60516039 48.08556315 20.60256577 51.18067932 C20.60189661 52.67029325 20.60272452 54.1599086 20.60504532 55.64952087 C20.60757253 57.72797485 20.60373033 59.80631981 20.59814453 61.88476562 C20.59734894 63.06977661 20.59655334 64.2547876 20.59573364 65.47570801 C20.46875 68.1328125 20.46875 68.1328125 19.46875 69.1328125 C17.62715977 69.23240871 15.78178033 69.26361661 13.9375 69.265625 C12.81730469 69.26691406 11.69710937 69.26820312 10.54296875 69.26953125 C9.36347656 69.26566406 8.18398437 69.26179688 6.96875 69.2578125 C5.19951172 69.26361328 5.19951172 69.26361328 3.39453125 69.26953125 C2.27433594 69.26824219 1.15414062 69.26695313 0 69.265625 C-1.03576172 69.26449707 -2.07152344 69.26336914 -3.13867188 69.26220703 C-5.53125 69.1328125 -5.53125 69.1328125 -6.53125 68.1328125 C-6.63068972 66.05205841 -6.65924596 63.96789402 -6.66064453 61.88476562 C-6.66239685 61.23273666 -6.66414917 60.5807077 -6.66595459 59.90892029 C-6.67037204 57.74394097 -6.66743551 55.57904271 -6.6640625 53.4140625 C-6.66473557 51.91573063 -6.66570562 50.41739887 -6.66696167 48.91906738 C-6.6684385 45.77497317 -6.66628458 42.63090733 -6.66162109 39.48681641 C-6.6559238 35.44794711 -6.65920289 31.40914426 -6.66519356 27.3702774 C-6.66879958 24.2751617 -6.66766039 21.18006185 -6.66506577 18.08494568 C-6.66439661 16.59533175 -6.66522452 15.1057164 -6.66754532 13.61610413 C-6.67007253 11.53765015 -6.66623033 9.45930519 -6.66064453 7.38085938 C-6.65984894 6.19584839 -6.65905334 5.0108374 -6.65823364 3.78991699 C-6.43114352 -0.96189339 -4.22421466 0.00460011 0 0 Z M-1.53125 4.1328125 C-1.53125 24.2628125 -1.53125 44.3928125 -1.53125 65.1328125 C4.07875 65.1328125 9.68875 65.1328125 15.46875 65.1328125 C15.46875 45.0028125 15.46875 24.8728125 15.46875 4.1328125 C9.85875 4.1328125 4.24875 4.1328125 -1.53125 4.1328125 Z " fill="#000000" transform="translate(73.53125,56.8671875)"/>
<path d="M0 0 C4.14581887 -0.02886751 8.29161216 -0.04675327 12.4375 -0.0625 C14.21350586 -0.07506836 14.21350586 -0.07506836 16.02539062 -0.08789062 C17.15009766 -0.09111328 18.27480469 -0.09433594 19.43359375 -0.09765625 C20.47572021 -0.10289307 21.51784668 -0.10812988 22.59155273 -0.11352539 C25 0 25 0 26 1 C26.09839214 2.5293463 26.12798539 4.06319566 26.12939453 5.59570312 C26.13254669 6.57341675 26.13569885 7.55113037 26.13894653 8.55847168 C26.1369223 9.62198853 26.13489807 10.68550537 26.1328125 11.78125 C26.13424759 13.40697937 26.13424759 13.40697937 26.13571167 15.06555176 C26.13639365 17.3622239 26.13453811 19.65889795 26.13037109 21.95556641 C26.12502312 25.48474428 26.1303155 29.01379487 26.13671875 32.54296875 C26.13605797 34.76822945 26.13477682 36.99349007 26.1328125 39.21875 C26.13483673 40.28226685 26.13686096 41.34578369 26.13894653 42.44152832 C26.13579437 43.41924194 26.13264221 44.39695557 26.12939453 45.40429688 C26.12859894 46.26953979 26.12780334 47.13478271 26.12698364 48.02624512 C26 50 26 50 25 51 C23.15840977 51.09959621 21.31303033 51.13080411 19.46875 51.1328125 C18.34855469 51.13410156 17.22835937 51.13539062 16.07421875 51.13671875 C14.89472656 51.13285156 13.71523438 51.12898438 12.5 51.125 C10.73076172 51.13080078 10.73076172 51.13080078 8.92578125 51.13671875 C7.24548828 51.13478516 7.24548828 51.13478516 5.53125 51.1328125 C4.49548828 51.13168457 3.45972656 51.13055664 2.39257812 51.12939453 C0 51 0 51 -1 50 C-1.09830562 48.50659806 -1.12798451 47.00859623 -1.12939453 45.51196289 C-1.13254669 44.55749771 -1.13569885 43.60303253 -1.13894653 42.61964417 C-1.1369223 41.58113815 -1.13489807 40.54263214 -1.1328125 39.47265625 C-1.13376923 38.41340439 -1.13472595 37.35415253 -1.13571167 36.26280212 C-1.1363937 34.01740459 -1.13453784 31.7720051 -1.13037109 29.52661133 C-1.12502845 26.080847 -1.13031262 22.63521334 -1.13671875 19.18945312 C-1.13605787 17.01302054 -1.1347765 14.83658805 -1.1328125 12.66015625 C-1.13483673 11.62367447 -1.13686096 10.58719269 -1.13894653 9.51930237 C-1.13579437 8.56168503 -1.13264221 7.60406769 -1.12939453 6.61743164 C-1.12859894 5.77217422 -1.12780334 4.92691681 -1.12698364 4.05604553 C-1 2 -1 2 0 0 Z M4 5 C4 18.86 4 32.72 4 47 C9.61 47 15.22 47 21 47 C21 33.14 21 19.28 21 5 C15.39 5 9.78 5 4 5 Z " fill="#000000" transform="translate(35,75)"/>
<path d="M0 0 C6.1565625 -0.0309375 6.1565625 -0.0309375 12.4375 -0.0625 C14.38160767 -0.07615601 14.38160767 -0.07615601 16.36499023 -0.09008789 C17.88394897 -0.09383423 17.88394897 -0.09383423 19.43359375 -0.09765625 C20.47572021 -0.10289307 21.51784668 -0.10812988 22.59155273 -0.11352539 C25 0 25 0 26 1 C26.10087212 3.50924153 26.13972032 5.99036384 26.1328125 8.5 C26.13424759 9.62631836 26.13424759 9.62631836 26.13571167 10.77539062 C26.13639338 12.36588627 26.13453972 13.95638467 26.13037109 15.546875 C26.12502267 17.98964655 26.13031634 20.43223421 26.13671875 22.875 C26.13605797 24.41666707 26.1347768 25.95833403 26.1328125 27.5 C26.13483673 28.23541016 26.13686096 28.97082031 26.13894653 29.72851562 C26.11495161 34.88504839 26.11495161 34.88504839 25 36 C23.14630389 36.08737645 21.28932459 36.10698153 19.43359375 36.09765625 C18.42095459 36.09515869 17.40831543 36.09266113 16.36499023 36.09008789 C15.06891846 36.08098389 13.77284668 36.07187988 12.4375 36.0625 C8.333125 36.041875 4.22875 36.02125 0 36 C0 24.12 0 12.24 0 0 Z M4 4 C4 13.24 4 22.48 4 32 C9.61 32 15.22 32 21 32 C21 22.76 21 13.52 21 4 C15.39 4 9.78 4 4 4 Z " fill="#000000" transform="translate(2,90)"/>
</svg>
