<?xml version="1.0" encoding="UTF-8"?>
<svg version="1.1" xmlns="http://www.w3.org/2000/svg" width="128" height="128">
<path d="M0 0 C4.29 0 8.58 0 13 0 C13.66 2.31 14.32 4.62 15 7 C17.39719432 7.67958603 17.39719432 7.67958603 20 8 C20.66 7.34 21.32 6.68 22 6 C26.00239656 5.88564581 28.07401125 7.70718911 30.875 10.3125 C32.7421875 12.11328125 32.7421875 12.11328125 34 14 C33.7308784 17.05979555 32.75078766 18.37381852 31 21 C31.56362302 23.04836882 31.56362302 23.04836882 33 25 C36.05908413 25.81584568 36.05908413 25.81584568 39 26 C39 29.3 39 32.6 39 36 C39.825 35.95359375 40.65 35.9071875 41.5 35.859375 C48.51119891 35.64027503 54.76417981 36.08362105 61.5625 37.75 C62.22830078 37.90694336 62.89410156 38.06388672 63.58007812 38.22558594 C67.86789237 39.35957133 70.7833784 40.95708794 74 44 C75.17469444 46.34938888 75.20034889 47.95073205 75.31640625 50.5703125 C75.35830078 51.46621094 75.40019531 52.36210938 75.44335938 53.28515625 C75.48267578 54.22230469 75.52199219 55.15945312 75.5625 56.125 C75.60568359 57.06988281 75.64886719 58.01476563 75.69335938 58.98828125 C75.79959072 61.32537092 75.90163176 63.6625683 76 66 C76.97839844 66.41958984 76.97839844 66.41958984 77.9765625 66.84765625 C84.94152236 70.04249772 89.96610387 73.19753042 93.02734375 80.42578125 C96.10030398 89.75795079 95.35436674 97.20055056 91 106 C83.59747794 116.92274315 68.09866954 118.61316653 56 121 C52.65251564 121.561005 49.39065971 121.87833826 46 122 C44.93652344 122.03996094 43.87304688 122.07992187 42.77734375 122.12109375 C30.96383652 122.34349643 14.17676943 122.55183995 4.88037109 114.06494141 C2.15403558 109.62110655 2.49924779 105.7809602 2.609375 100.66796875 C2.61503479 99.67622147 2.62069458 98.68447418 2.62652588 97.66267395 C2.64886656 94.50378586 2.69905962 91.34604364 2.75 88.1875 C2.77006794 86.04233412 2.7883182 83.89715041 2.8046875 81.75195312 C2.84872355 76.50091297 2.9156125 71.25053836 3 66 C1.68 66 0.36 66 -1 66 C-1.33 63.69 -1.66 61.38 -2 59 C-4.34533951 58.23043864 -4.34533951 58.23043864 -7 58 C-8.02019573 58.9793879 -9.02149805 59.97895449 -10 61 C-14.38855578 60.51855506 -16.70600764 57.90131828 -19.64453125 54.84375 C-21 53 -21 53 -21 50.25 C-20.67 49.5075 -20.34 48.765 -20 48 C-18.66666667 45 -18.66666667 45 -20 42 C-23.51190809 40.77030122 -23.51190809 40.77030122 -27 40 C-27.02685938 37.85423363 -27.04633088 35.70837355 -27.0625 33.5625 C-27.07410156 32.36753906 -27.08570313 31.17257813 -27.09765625 29.94140625 C-27 27 -27 27 -26 26 C-24.00041636 25.95919217 -21.99954746 25.95745644 -20 26 C-19.32198966 23.09926819 -19.32198966 23.09926819 -19 20 C-19.66 19.34 -20.32 18.68 -21 18 C-21.5625 15.8125 -21.5625 15.8125 -21 13 C-18.37259934 9.44267663 -15.73170309 6.36244948 -11.3125 5.4375 C-8.96191541 6.00926382 -7.07879481 6.76812159 -5 8 C-1.31297122 5.98538237 -1.31297122 5.98538237 0 0 Z M3 4 C2.67 6.31 2.34 8.62 2 11 C1.0925 11.144375 0.185 11.28875 -0.75 11.4375 C-3.85169578 11.88109385 -3.85169578 11.88109385 -6.125 12.75 C-8 13 -8 13 -10.25 11.5625 C-10.8275 11.046875 -11.405 10.53125 -12 10 C-13.65 11.98 -15.3 13.96 -17 16 C-16.48824219 16.38800781 -15.97648438 16.77601562 -15.44921875 17.17578125 C-14 19 -14 19 -14.14453125 21.48046875 C-14.36496094 22.37378906 -14.58539063 23.26710938 -14.8125 24.1875 C-15.02519531 25.08855469 -15.23789063 25.98960938 -15.45703125 26.91796875 C-15.63621094 27.60503906 -15.81539062 28.29210937 -16 29 C-16.969375 28.979375 -17.93875 28.95875 -18.9375 28.9375 C-21.87465895 28.64381501 -21.87465895 28.64381501 -23 30 C-23.04092937 32.33297433 -23.04241723 34.66705225 -23 37 C-21.6078125 37.0309375 -21.6078125 37.0309375 -20.1875 37.0625 C-17 38 -17 38 -15.0625 41.3125 C-14.05698912 44.80221424 -13.78109731 45.78652926 -15 49 C-15 50.32 -15 51.64 -15 53 C-13.07977297 54.77409808 -13.07977297 54.77409808 -11 56 C-10.34 55.34 -9.68 54.68 -9 54 C-6.1875 54.3125 -6.1875 54.3125 -3 55 C-1.576875 55.2784375 -1.576875 55.2784375 -0.125 55.5625 C0.57625 55.706875 1.2775 55.85125 2 56 C2.33 57.32 2.66 58.64 3 60 C3.13496251 57.89758397 3.23197307 55.7927039 3.3125 53.6875 C3.37050781 52.51574219 3.42851563 51.34398437 3.48828125 50.13671875 C3.33429776 46.82551974 3.33429776 46.82551974 0.60546875 45.08203125 C-1.83763965 43.87215545 -1.83763965 43.87215545 -4 44 C-6.17046189 39.51437876 -7.07005816 34.9653719 -7 30 C-5.5395386 25.84921495 -3.98291768 22.99145884 0 21 C4.66489277 19.85158174 7.94968784 19.56077855 12.4375 21.4375 C13.7059375 22.2109375 13.7059375 22.2109375 15 23 C15.66 23 16.32 23 17 23 C19.22893187 27.6064592 19.54877602 31.96133223 20 37 C24.95 36.67 29.9 36.34 35 36 C35 34.02 35 32.04 35 30 C33.93354885 28.70366379 33.93354885 28.70366379 31.4375 28.9375 C30.633125 28.958125 29.82875 28.97875 29 29 C27.51050003 24.53150008 26.73220399 21.56406563 28 17 C28.33218192 13.99740483 28.33218192 13.99740483 26.5 12.3125 C26.005 11.879375 25.51 11.44625 25 11 C24.443125 11.350625 23.88625 11.70125 23.3125 12.0625 C20.37428442 13.25366848 19.01568049 12.88263819 16 12 C15.0925 11.773125 14.185 11.54625 13.25 11.3125 C12.13625 10.6628125 12.13625 10.6628125 11 10 C10.1875 6.875 10.1875 6.875 10 4 C7.69 4 5.38 4 3 4 Z M-2 27 C-4.09390974 29.64014707 -4 31.01175464 -4 34.4375 C-2.64858051 39.25193193 -1.23066067 40.39651651 3 43 C5.51749828 43.14768913 5.51749828 43.14768913 8 42 C8.60457031 41.77441406 9.20914063 41.54882812 9.83203125 41.31640625 C13.61347561 39.99658804 13.61347561 39.99658804 16 37 C16.51441592 32.54172873 16.30466095 30.49853609 13.9375 26.625 C8.21132518 21.50799271 3.65705632 22.13230038 -2 27 Z M8 46 C8.24680539 47.93872834 8.24680539 47.93872834 9 50 C22.66375349 58.60310405 42.56198233 57.7625479 57.9375 54.75 C62.86563385 53.51352944 66.82366048 51.883663 71 49 C69.97376309 46.13733914 69.33404477 45.169443 66.57421875 43.76953125 C65.62160156 43.45371094 64.66898438 43.13789062 63.6875 42.8125 C62.74261719 42.48894531 61.79773438 42.16539063 60.82421875 41.83203125 C53.68578321 39.72900667 46.83761887 39.78078573 39.4375 39.75 C37.61895508 39.7190625 37.61895508 39.7190625 35.76367188 39.6875 C25.79082707 39.64472104 16.53381014 40.49133159 8 46 Z M7 54 C6.83750546 56.41936317 6.71902183 58.82781859 6.625 61.25 C6.57472656 61.93191406 6.52445313 62.61382812 6.47265625 63.31640625 C6.3431629 65.61634637 6.3431629 65.61634637 7 69 C16.30604691 77.21359792 30.69301222 77.03932516 42.45703125 77.23046875 C46.78307671 76.83840011 49.34801367 75.66914386 52.375 72.5625 C57.7945044 67.27203142 63.7694337 66.55619741 71 66 C71 62.04 71 58.08 71 54 C69.60587891 54.41572266 69.60587891 54.41572266 68.18359375 54.83984375 C66.94738281 55.20207031 65.71117187 55.56429687 64.4375 55.9375 C62.61025391 56.47697266 62.61025391 56.47697266 60.74609375 57.02734375 C43.26935961 61.5650985 23.92777236 59.86353561 7 54 Z M50.12890625 80.3515625 C46.82234815 85.17982381 47.51128313 91.42579454 48 97 C49.75762656 103.75062941 54.16087888 107.5216173 60 111 C65.26925845 113.63462922 70.37232228 113.34612661 76 112 C82.53135942 109.10338683 86.87729874 104.83808138 89.8125 98.3125 C91.77548594 92.51078601 91.46036395 87.02978105 88.796875 81.50390625 C85.18936645 75.72239913 81.54644285 72.18214762 75 70 C63.54004817 68.81156055 57.37198364 71.62829218 50.12890625 80.3515625 Z M7 75 C6.86473861 77.24834496 6.76789196 79.49902514 6.6875 81.75 C6.62949219 83.00296875 6.57148437 84.2559375 6.51171875 85.546875 C6.67430119 89.11539528 6.67430119 89.11539528 9.2421875 91.34765625 C11.66536923 92.79950593 13.75079697 93.85898017 16.4375 94.6875 C17.15808594 94.91824219 17.87867188 95.14898437 18.62109375 95.38671875 C24.43202367 96.88477458 29.91583035 97.12815187 35.875 97.0625 C36.65875 97.05798828 37.4425 97.05347656 38.25 97.04882812 C40.16670014 97.03714093 42.08336048 97.01920908 44 97 C44.09087891 95.66195312 44.09087891 95.66195312 44.18359375 94.296875 C44.26738281 93.12640625 44.35117188 91.9559375 44.4375 90.75 C44.51871094 89.58984375 44.59992188 88.4296875 44.68359375 87.234375 C44.93247787 84.69022624 45.28114942 82.44046752 46 80 C45.10474609 80.03480469 45.10474609 80.03480469 44.19140625 80.0703125 C31.59750126 80.33229566 19.00420486 78.88905125 7 75 Z M7 95 C5.91958963 103.7876247 5.91958963 103.7876247 8.18359375 112.00390625 C19.68215569 120.17326317 40.36589009 118.95277136 53.375 117 C55.25189015 116.6774795 57.12772797 116.34832968 59 116 C56.72569089 113.67165763 54.51878997 111.62681671 51.9375 109.625 C48.87844479 106.8913762 47.70382535 104.67055551 46 101 C44.79085937 100.96261719 43.58171875 100.92523438 42.3359375 100.88671875 C30.01786043 100.42338634 18.73218356 99.05102302 7 95 Z " fill="#000000" transform="translate(30,3)"/>
<path d="M0 0 C1.875 0.1875 1.875 0.1875 4 1 C6.6311344 5.20981504 6.77334724 10.2004635 6 15 C4.15372573 19.6434194 2.28557547 22.41785262 -2.3125 24.5 C-3.6428125 24.7475 -3.6428125 24.7475 -5 25 C-4.67 26.65 -4.34 28.3 -4 30 C-7.82097239 29.46930939 -10.06171403 28.50298434 -13 26 C-12.47679633 22.23293356 -11.72611199 19.72611199 -9 17 C-7.68 17 -6.36 17 -5 17 C-4.67 17.99 -4.34 18.98 -4 20 C-1.667746 18.269618 -0.2153184 16.83235024 0.5234375 13.9765625 C1.13643275 9.12230278 0.91796455 4.79381487 0 0 Z " fill="#000000" transform="translate(109,84)"/>
<path d="M0 0 C3.35595828 0.59927826 5.37801226 1.84622436 8 4 C7.39622642 9.43396226 7.39622642 9.43396226 5.6875 11.875 C4 13 4 13 0 13 C0 12.01 0 11.02 0 10 C-3.15327195 12.66815319 -4.81868364 14.3472611 -5.9375 18.375 C-6.00789451 22.45788159 -5.32891203 25.1696065 -4 29 C-5.32 29.33 -6.64 29.66 -8 30 C-10.67191635 25.43547624 -11.63749545 22.28210516 -11 17 C-9.45813802 12.19085905 -7.48517884 9.05054422 -3.25 6.25 C-2.1775 5.5075 -1.105 4.765 0 4 C0 2.68 0 1.36 0 0 Z " fill="#000000" transform="translate(94,74)"/>
</svg>
