<?xml version="1.0" encoding="UTF-8"?>
<svg version="1.1" xmlns="http://www.w3.org/2000/svg" width="128" height="128">
<path d="M0 0 C1.20591797 -0.020625 2.41183594 -0.04125 3.65429688 -0.0625 C4.80865234 -0.06765625 5.96300781 -0.0728125 7.15234375 -0.078125 C8.21316162 -0.0874707 9.27397949 -0.09681641 10.36694336 -0.10644531 C13.0625 0.25 13.0625 0.25 14.93188477 1.64550781 C16.0625 3.25 16.0625 3.25 16.0625 5.25 C17.3825 5.58 18.7025 5.91 20.0625 6.25 C20.0625 6.91 20.0625 7.57 20.0625 8.25 C20.79887695 8.23952637 21.53525391 8.22905273 22.29394531 8.21826172 C25.63342876 8.17666298 28.97285765 8.15066136 32.3125 8.125 C34.05080078 8.09986328 34.05080078 8.09986328 35.82421875 8.07421875 C36.93925781 8.06777344 38.05429688 8.06132812 39.203125 8.0546875 C40.74274902 8.03897705 40.74274902 8.03897705 42.31347656 8.02294922 C45.1143709 8.25428419 46.7265697 8.71759207 49.0625 10.25 C50.248303 12.621606 50.19586049 14.06916148 50.20967102 16.71554565 C50.21682632 17.6548996 50.22398163 18.59425354 50.23135376 19.56207275 C50.23404266 20.59588074 50.23673157 21.62968872 50.23950195 22.69482422 C50.24607315 23.781091 50.25264435 24.86735779 50.25941467 25.98654175 C50.27917715 29.59259097 50.2908157 33.19859852 50.30078125 36.8046875 C50.30485678 38.03350773 50.3089323 39.26232796 50.31313133 40.52838516 C50.33184912 46.3589648 50.34641344 52.18952797 50.3547433 58.02013195 C50.36451955 64.7520604 50.39084943 71.48366037 50.43124419 78.21547306 C50.46502522 84.04498357 50.47688677 89.87438368 50.48094749 95.70398331 C50.48583072 98.1847672 50.49749363 100.66554715 50.51598549 103.14626694 C50.54022644 106.61324251 50.53943931 110.07935308 50.5324707 113.54638672 C50.54528076 114.57614624 50.55809082 115.60590576 50.57128906 116.66687012 C50.52158959 123.43053895 50.52158959 123.43053895 48.58537292 126.8866272 C44.87547037 128.89147659 41.33838535 128.80723154 37.2265625 128.76757812 C36.33507507 128.7745874 35.44358765 128.78159668 34.52508545 128.78881836 C31.57890657 128.80642034 28.63368861 128.79476775 25.6875 128.78125 C23.64013484 128.78394428 21.59277093 128.78782616 19.54541016 128.79284668 C15.25475887 128.79874472 10.96444069 128.79016879 6.67382812 128.77148438 C1.17218512 128.74869482 -4.32867738 128.76181624 -9.83029175 128.78577423 C-14.05792122 128.80022385 -18.28536545 128.79563002 -22.51300049 128.78526306 C-24.54160657 128.78259347 -26.57022943 128.78587368 -28.59881592 128.79518127 C-31.43351838 128.80533296 -34.26695445 128.7898651 -37.1015625 128.76757812 C-37.94116516 128.77567505 -38.78076782 128.78377197 -39.64581299 128.79211426 C-42.98480719 128.74344467 -45.5005856 128.48646836 -48.45838928 126.88563538 C-50.85485695 122.6153567 -50.48447088 118.37585888 -50.43920898 113.56225586 C-50.44461197 112.47409073 -50.45001495 111.3859256 -50.45558167 110.26478577 C-50.46809873 106.66452925 -50.45155832 103.06506766 -50.43359375 99.46484375 C-50.43374866 96.96667946 -50.43523624 94.46851493 -50.43800354 91.97035217 C-50.43938883 86.73397101 -50.4272395 81.49779643 -50.40405273 76.26147461 C-50.37742961 70.20719513 -50.3757006 64.15329882 -50.3874411 58.09898084 C-50.39821825 52.27369108 -50.39193248 46.44854137 -50.37788582 40.62326241 C-50.37336109 38.14446987 -50.37304338 35.66566606 -50.37695122 33.18687248 C-50.37985238 29.7271275 -50.36340865 26.26801483 -50.34155273 22.80834961 C-50.34605438 21.7781369 -50.35055603 20.74792419 -50.35519409 19.68649292 C-50.34528946 18.74576431 -50.33538483 17.80503571 -50.32518005 16.83580017 C-50.32275016 16.01783431 -50.32032026 15.19986845 -50.31781673 14.35711575 C-49.845468 11.74010377 -48.99067849 10.88647791 -46.9375 9.25 C-44.48474859 8.0236243 -42.8869219 8.13584686 -40.1484375 8.15234375 C-39.20742188 8.15556641 -38.26640625 8.15878906 -37.296875 8.16210938 C-36.31203125 8.17048828 -35.3271875 8.17886719 -34.3125 8.1875 C-33.31992187 8.19201172 -32.32734375 8.19652344 -31.3046875 8.20117188 C-28.8488984 8.21297855 -26.39322896 8.229446 -23.9375 8.25 C-23.6075 9.9 -23.2775 11.55 -22.9375 13.25 C-33.3325 13.745 -33.3325 13.745 -43.9375 14.25 C-43.9375 49.89 -43.9375 85.53 -43.9375 122.25 C-14.8975 122.25 14.1425 122.25 44.0625 122.25 C44.0625 86.61 44.0625 50.97 44.0625 14.25 C36.4725 13.92 28.8825 13.59 21.0625 13.25 C21.0625 15.23 21.0625 17.21 21.0625 19.25 C18.75264022 22.0623582 17.16993393 22.23812431 13.55078125 22.63818359 C12.15898964 22.65790134 10.76688044 22.66033375 9.375 22.6484375 C8.63548096 22.65130768 7.89596191 22.65417786 7.1340332 22.65713501 C5.57404818 22.65917203 4.0140374 22.65366745 2.45410156 22.64111328 C0.07038092 22.6250531 -2.3116444 22.64097279 -4.6953125 22.66015625 C-6.2135454 22.65817375 -7.73177724 22.65432994 -9.25 22.6484375 C-10.31577271 22.65754654 -10.31577271 22.65754654 -11.40307617 22.6668396 C-14.50752462 22.62285835 -16.65124959 22.40925942 -19.38696289 20.88720703 C-21.59985097 18.55062579 -21.4388592 16.91741626 -21.375 13.75 C-21.37371094 12.7909375 -21.37242188 11.831875 -21.37109375 10.84375 C-20.88230878 7.91984712 -20.31365432 6.96966181 -17.9375 5.25 C-17.2775 5.25 -16.6175 5.25 -15.9375 5.25 C-15.751875 4.2909375 -15.751875 4.2909375 -15.5625 3.3125 C-15.35625 2.631875 -15.15 1.95125 -14.9375 1.25 C-10.5945639 -0.92146805 -4.7702644 0.02033144 0 0 Z M-10.9375 5.25 C-11.5975 6.57 -12.2575 7.89 -12.9375 9.25 C-13.9275 9.58 -14.9175 9.91 -15.9375 10.25 C-15.9375 12.56 -15.9375 14.87 -15.9375 17.25 C-5.3775 17.25 5.1825 17.25 16.0625 17.25 C16.0625 14.94 16.0625 12.63 16.0625 10.25 C15.0725 9.92 14.0825 9.59 13.0625 9.25 C12.4025 7.93 11.7425 6.61 11.0625 5.25 C3.8025 5.25 -3.4575 5.25 -10.9375 5.25 Z " fill="#000000" transform="translate(63.9375,-0.25)"/>
<path d="M0 0 C1.0209375 0.4640625 1.0209375 0.4640625 2.0625 0.9375 C1.48674336 4.29000701 0.46943737 5.87568629 -2 8.1875 C-2.54785156 8.70828125 -3.09570312 9.2290625 -3.66015625 9.765625 C-4.08167969 10.15234375 -4.50320312 10.5390625 -4.9375 10.9375 C-3.9475 11.5975 -2.9575 12.2575 -1.9375 12.9375 C-1.37012411 20.08643617 -1.37012411 20.08643617 -3.9375 23.9375 C-6.85854126 24.24029086 -9.52049784 24.35560841 -12.4375 24.3125 C-13.61505859 24.32990234 -13.61505859 24.32990234 -14.81640625 24.34765625 C-17.09375 24.3359375 -17.09375 24.3359375 -20.9375 23.9375 C-23.38258878 20.26986683 -23.23635724 18.30318225 -23.25 13.9375 C-23.26675781 12.7 -23.28351563 11.4625 -23.30078125 10.1875 C-22.9375 6.9375 -22.9375 6.9375 -21.7109375 5.01171875 C-19.41438594 3.62063576 -17.91651548 3.63406454 -15.25 3.75 C-14.03763672 3.79060547 -14.03763672 3.79060547 -12.80078125 3.83203125 C-12.18589844 3.86683594 -11.57101563 3.90164062 -10.9375 3.9375 C-10.6075 4.9275 -10.2775 5.9175 -9.9375 6.9375 C-9.49019531 6.42058594 -9.04289062 5.90367188 -8.58203125 5.37109375 C-3.58243997 -0.07622213 -3.58243997 -0.07622213 0 0 Z M-17.9375 8.9375 C-17.9375 12.2375 -17.9375 15.5375 -17.9375 18.9375 C-14.3075 18.9375 -10.6775 18.9375 -6.9375 18.9375 C-6.9375 16.9575 -6.9375 14.9775 -6.9375 12.9375 C-7.535625 13.4325 -8.13375 13.9275 -8.75 14.4375 C-10.9375 15.9375 -10.9375 15.9375 -13.9375 15.9375 C-13.0625 11.1875 -13.0625 11.1875 -11.9375 8.9375 C-13.9175 8.9375 -15.8975 8.9375 -17.9375 8.9375 Z " fill="#000000" transform="translate(98.9375,61.0625)"/>
<path d="M0 0 C0.33 1.65 0.66 3.3 1 5 C-1.31 5 -3.62 5 -6 5 C-6 8.63 -6 12.26 -6 16 C-2.37 16 1.26 16 5 16 C5 13.69 5 11.38 5 9 C7.475 9.495 7.475 9.495 10 10 C10.35990757 16.23839784 10.35990757 16.23839784 8.95703125 19.20703125 C6.07290903 21.84937077 3.2077933 21.54696818 -0.5 21.4375 C-1.17675781 21.44458984 -1.85351562 21.45167969 -2.55078125 21.45898438 C-5.29949026 21.42374452 -7.50518887 21.26980647 -9.94140625 19.94140625 C-11.59558029 16.90773652 -11.4727599 13.86571785 -11.4375 10.5 C-11.45748047 9.82324219 -11.47746094 9.14648438 -11.49804688 8.44921875 C-11.49487745 5.23542487 -11.41829045 3.4565654 -9.20703125 1.04296875 C-6.09394761 -0.42816989 -3.39111818 -0.19564143 0 0 Z " fill="#000000" transform="translate(87,97)"/>
<path d="M0 0 C0.33 1.65 0.66 3.3 1 5 C-0.98 5.33 -2.96 5.66 -5 6 C-5.33 9.3 -5.66 12.6 -6 16 C-2.37 16 1.26 16 5 16 C5 13.69 5 11.38 5 9 C7.475 9.495 7.475 9.495 10 10 C10.35990757 16.23839784 10.35990757 16.23839784 8.95703125 19.20703125 C6.07290903 21.84937077 3.2077933 21.54696818 -0.5 21.4375 C-1.17675781 21.44458984 -1.85351562 21.45167969 -2.55078125 21.45898438 C-5.29825004 21.42376042 -7.50329119 21.27138727 -9.9375 19.94140625 C-11.59745687 16.90832329 -11.51283596 13.86944075 -11.5 10.5 C-11.52835937 9.82324219 -11.55671875 9.14648438 -11.5859375 8.44921875 C-11.59375 6.46875 -11.59375 6.46875 -11 3 C-7.38888153 -0.04062244 -4.64229553 -0.32388108 0 0 Z " fill="#000000" transform="translate(87,32)"/>
<path d="M0 0 C1.64510941 0.00015915 3.29022379 0.00585551 4.93530273 0.01586914 C6.23164894 0.01799156 6.23164894 0.01799156 7.55418396 0.02015686 C10.32578941 0.025773 13.09731528 0.0383282 15.86889648 0.05102539 C17.74324428 0.05603831 19.61759334 0.06060158 21.49194336 0.06469727 C26.09679192 0.07574767 30.70158069 0.09302309 35.30639648 0.11352539 C35.30639648 1.76352539 35.30639648 3.41352539 35.30639648 5.11352539 C22.43639648 5.11352539 9.56639648 5.11352539 -3.69360352 5.11352539 C-4.02360352 3.79352539 -4.35360352 2.47352539 -4.69360352 1.11352539 C-3.69360352 0.11352539 -3.69360352 0.11352539 0 0 Z " fill="#000000" transform="translate(32.693603515625,64.886474609375)"/>
<path d="M0 0 C1.22763565 0.00212242 1.22763565 0.00212242 2.48007202 0.00428772 C5.09873075 0.00989335 7.71730454 0.02244677 10.3359375 0.03515625 C12.10937377 0.04017053 13.88281137 0.04473356 15.65625 0.04882812 C20.00784532 0.05986461 24.359377 0.077133 28.7109375 0.09765625 C29.2059375 2.57265625 29.2059375 2.57265625 29.7109375 5.09765625 C16.5109375 5.09765625 3.3109375 5.09765625 -10.2890625 5.09765625 C-10.2890625 3.77765625 -10.2890625 2.45765625 -10.2890625 1.09765625 C-7.06302705 -0.51536148 -3.54196212 -0.02287974 0 0 Z " fill="#000000" transform="translate(38.2890625,96.90234375)"/>
<path d="M0 0 C1.18722656 -0.00143509 1.18722656 -0.00143509 2.3984375 -0.00289917 C4.07291747 -0.00358009 5.74740009 -0.00173194 7.421875 0.00244141 C9.98964346 0.00779092 12.557237 0.00249347 15.125 -0.00390625 C16.75000039 -0.00324545 18.37500067 -0.00196426 20 0 C20.77085938 -0.00202423 21.54171875 -0.00404846 22.3359375 -0.00613403 C27.77007868 0.01785184 27.77007868 0.01785184 30 1.1328125 C30 2.4528125 30 3.7728125 30 5.1328125 C16.8 5.1328125 3.6 5.1328125 -10 5.1328125 C-10 3.8128125 -10 2.4928125 -10 1.1328125 C-6.84546335 -0.44445582 -3.46259198 -0.00909256 0 0 Z " fill="#000000" transform="translate(38,31.8671875)"/>
<path d="M0 0 C8.25 0 16.5 0 25 0 C24.67 1.65 24.34 3.3 24 5 C16.41 5 8.82 5 1 5 C0.67 3.35 0.34 1.7 0 0 Z " fill="#000000" transform="translate(28,43)"/>
<path d="M0 0 C8.25 0 16.5 0 25 0 C25 1.32 25 2.64 25 4 C22.57108818 5.21445591 20.99280557 5.12924198 18.28125 5.1328125 C17.34925781 5.13410156 16.41726562 5.13539062 15.45703125 5.13671875 C14.48121094 5.13285156 13.50539063 5.12898438 12.5 5.125 C11.03626953 5.13080078 11.03626953 5.13080078 9.54296875 5.13671875 C8.14498047 5.13478516 8.14498047 5.13478516 6.71875 5.1328125 C5.86216797 5.13168457 5.00558594 5.13055664 4.12304688 5.12939453 C2 5 2 5 0 4 C0 2.68 0 1.36 0 0 Z " fill="#000000" transform="translate(28,108)"/>
<path d="M0 0 C0.9583374 0.00523682 1.9166748 0.01047363 2.90405273 0.01586914 C4.45576172 0.02070312 4.45576172 0.02070312 6.03881836 0.02563477 C7.12743164 0.03401367 8.21604492 0.04239258 9.33764648 0.05102539 C10.97636719 0.05779297 10.97636719 0.05779297 12.64819336 0.06469727 C15.35723144 0.07652713 18.06616248 0.09300996 20.77514648 0.11352539 C21.33764648 2.05102539 21.33764648 2.05102539 21.77514648 4.11352539 C20.77514648 5.11352539 20.77514648 5.11352539 18.55029297 5.22705078 C17.59195557 5.22181396 16.63361816 5.21657715 15.64624023 5.21118164 C14.09453125 5.20634766 14.09453125 5.20634766 12.51147461 5.20141602 C11.42286133 5.19303711 10.33424805 5.1846582 9.21264648 5.17602539 C7.57392578 5.16925781 7.57392578 5.16925781 5.90209961 5.16235352 C3.19306153 5.15052366 0.48413049 5.13404082 -2.22485352 5.11352539 C-2.78735352 3.17602539 -2.78735352 3.17602539 -3.22485352 1.11352539 C-2.22485352 0.11352539 -2.22485352 0.11352539 0 0 Z " fill="#000000" transform="translate(31.224853515625,74.886474609375)"/>
<path d="M0 0 C2.1862793 0.35083008 2.1862793 0.35083008 4 1 C3.13951346 5.59774026 0.40503655 8.11015843 -2.8125 11.3125 C-3.34681641 11.87517578 -3.88113281 12.43785156 -4.43164062 13.01757812 C-6.01953125 14.61328125 -6.01953125 14.61328125 -9 17 C-11.1862793 16.64916992 -11.1862793 16.64916992 -13 16 C-12.13951346 11.40225974 -9.40503655 8.88984157 -6.1875 5.6875 C-5.38602539 4.84348633 -5.38602539 4.84348633 -4.56835938 3.98242188 C-2.98046875 2.38671875 -2.98046875 2.38671875 0 0 Z " fill="#000000" transform="translate(97,93)"/>
<path d="M0 0 C2.1862793 0.35302734 2.1862793 0.35302734 4 1 C3.14189314 5.59059328 0.41196788 8.06740833 -2.8125 11.25 C-3.34681641 11.80429687 -3.88113281 12.35859375 -4.43164062 12.9296875 C-8.50696583 17 -8.50696583 17 -13 17 C-12.65473319 11.69275592 -9.79271144 9.15785182 -6.1875 5.625 C-5.65318359 5.06683594 -5.11886719 4.50867187 -4.56835938 3.93359375 C-2.98046875 2.3515625 -2.98046875 2.3515625 0 0 Z " fill="#000000" transform="translate(97,28)"/>
</svg>
