<?xml version="1.0" encoding="UTF-8"?>
<svg version="1.1" xmlns="http://www.w3.org/2000/svg" width="128" height="128">
<path d="M0 0 C1.2158075 -0.01051392 1.2158075 -0.01051392 2.45617676 -0.02124023 C5.12217982 -0.03877392 7.78711208 -0.02721435 10.453125 -0.01367188 C12.31347862 -0.01636813 14.17383087 -0.02025166 16.03417969 -0.02526855 C19.92787123 -0.03115732 23.82119504 -0.02262072 27.71484375 -0.00390625 C32.69835686 0.01888297 37.68100823 0.00575655 42.66448975 -0.01819611 C46.50446022 -0.03267091 50.3442274 -0.02804039 54.1842041 -0.01768494 C56.02136335 -0.0150223 57.85854123 -0.01827109 59.69567871 -0.02760315 C62.26636434 -0.0377966 64.83566701 -0.02222958 67.40625 0 C68.16071411 -0.00809692 68.91517822 -0.01619385 69.69250488 -0.02453613 C74.81650236 0.05728419 77.76038607 1.27427806 81.703125 4.51757812 C82.8689127 6.84915353 82.83865686 8.2267085 82.85702515 10.82453918 C82.86562561 11.72879135 82.87422607 12.63304352 82.88308716 13.56469727 C82.88734711 14.55953125 82.89160706 15.55436523 82.89599609 16.5793457 C82.90826233 18.14781502 82.90826233 18.14781502 82.92077637 19.74797058 C82.94565428 23.21934429 82.96215173 26.69067707 82.9765625 30.16210938 C82.98188618 31.3455512 82.98720985 32.52899303 82.99269485 33.74829674 C83.01943564 40.01098356 83.03880843 46.27365037 83.05322266 52.53637695 C83.06988124 59.01321505 83.11466721 65.48954538 83.1655941 71.96619129 C83.19920684 76.93927106 83.21079354 81.91222938 83.21644974 86.88541222 C83.22317769 89.27328056 83.23843948 91.66114049 83.26234055 94.0488987 C83.2938682 97.38889912 83.29404701 100.72751753 83.28662109 104.06762695 C83.30302643 105.05638824 83.31943176 106.04514954 83.33633423 107.06387329 C83.29366999 111.7450342 83.24957425 113.81722975 80.29165649 117.60820007 C76.06486618 120.7260067 72.96638351 120.67672261 67.86035156 120.69458008 C67.05039734 120.70115128 66.24044312 120.70772247 65.40594482 120.7144928 C62.71854565 120.73424468 60.03120245 120.74589333 57.34375 120.75585938 C55.96763172 120.76197267 55.96763172 120.76197267 54.56371307 120.76820946 C49.70686568 120.78907948 44.85004662 120.80337646 39.99316406 120.81274414 C34.97824523 120.82380318 29.96377078 120.85819453 24.94900894 120.89791584 C21.09193095 120.92407421 17.23495888 120.93243534 13.37779999 120.93602562 C11.52944695 120.94089456 9.68109874 120.95251731 7.83283234 120.97106361 C5.24269035 120.99543598 2.65369834 120.99449359 0.06347656 120.98754883 C-0.69727173 121.00035889 -1.45802002 121.01316895 -2.24182129 121.02636719 C-7.39677854 120.97610355 -10.34502709 119.80292554 -14.296875 116.51757812 C-17.11220658 111.23492263 -16.55133838 105.27061148 -16.4921875 99.43164062 C-16.4893576 98.37472015 -16.48652771 97.31779968 -16.48361206 96.22885132 C-16.4724535 92.86664312 -16.44735659 89.50470527 -16.421875 86.14257812 C-16.41183962 83.85742573 -16.40271475 81.57226915 -16.39453125 79.28710938 C-16.37252832 73.69717402 -16.33909373 68.10739539 -16.296875 62.51757812 C-17.22628906 62.38480469 -18.15570312 62.25203125 -19.11328125 62.11523438 C-26.28627445 60.76864792 -31.16583346 55.2350248 -35.296875 49.51757812 C-37.46929836 45.34537432 -37.68268089 41.3283798 -37.671875 36.70507812 C-37.67026367 35.99311279 -37.66865234 35.28114746 -37.66699219 34.54760742 C-37.53571551 28.92909447 -36.59611846 25.02386188 -33.296875 20.51757812 C-32.4615625 19.18726563 -32.4615625 19.18726563 -31.609375 17.83007812 C-27.05931309 13.28001621 -21.63365438 10.54576808 -15.296875 9.51757812 C-15.255625 8.77507813 -15.214375 8.03257813 -15.171875 7.26757812 C-12.99120132 0.41403229 -6.27935084 -0.06739012 0 0 Z M-9.28762817 7.54695129 C-9.62067963 8.19725815 -9.95373108 8.847565 -10.296875 9.51757812 C-9.37068359 9.62972656 -9.37068359 9.62972656 -8.42578125 9.74414062 C-0.11621867 11.0342097 6.47553323 14.20630214 11.640625 21.01757812 C16.06541044 28.03620331 16.94646962 35.61430326 15.23828125 43.72460938 C13.04732182 50.29748767 9.13325758 56.52159672 2.953125 59.89257812 C-0.17936055 61.21563533 -3.22479605 61.98574796 -6.5625 62.61914062 C-7.45227539 62.79010254 -8.34205078 62.96106445 -9.25878906 63.13720703 C-9.93135742 63.26272949 -10.60392578 63.38825195 -11.296875 63.51757812 C-11.37301238 69.97705526 -11.42551149 76.43641643 -11.46166992 82.89624023 C-11.47674552 85.09322433 -11.49720926 87.29017839 -11.52319336 89.48706055 C-11.55963002 92.64704813 -11.57661384 95.80663737 -11.58984375 98.96679688 C-11.60532761 99.9471843 -11.62081146 100.92757172 -11.63676453 101.93766785 C-11.63799967 106.95567136 -11.59837539 110.44877251 -8.296875 114.51757812 C-6.31765525 116.49679787 -2.41126973 115.67472021 0.29638672 115.67871094 C1.09150665 115.68367584 1.88662659 115.68864075 2.70584106 115.6937561 C5.34817353 115.70841559 7.99044597 115.71518608 10.6328125 115.72070312 C12.46265669 115.72645158 14.29250084 115.73220935 16.12234497 115.73797607 C19.96421592 115.74849693 23.80606588 115.75433245 27.64794922 115.7578125 C32.57679568 115.7632987 37.50536607 115.78732481 42.4341259 115.81578445 C46.21559465 115.83438608 49.99699659 115.83961511 53.77850723 115.84114838 C55.59583164 115.84418118 57.41315471 115.85223075 59.23043442 115.86533356 C61.77086266 115.8823422 64.31061253 115.88052668 66.85107422 115.87402344 C67.60547791 115.88323822 68.35988159 115.892453 69.137146 115.90194702 C73.12354504 115.88423793 73.12354504 115.88423793 76.63137817 114.18280029 C78.48146255 111.3082394 78.82970509 108.79453889 78.84356689 105.47000122 C78.84927704 104.64851593 78.85498718 103.82703064 78.86087036 102.98065186 C78.86198822 102.08292053 78.86310608 101.18518921 78.86425781 100.26025391 C78.86922272 99.31199738 78.87418762 98.36374084 78.87930298 97.38674927 C78.89392471 94.24545571 78.90072633 91.10421264 78.90625 87.96289062 C78.91200106 85.78197223 78.9177588 83.60105386 78.92352295 81.4201355 C78.9340327 76.84535486 78.93987567 72.2705918 78.94335938 67.69580078 C78.94884668 61.83231179 78.97288 55.96905472 79.00133133 50.1056385 C79.01994888 45.60008056 79.02516282 41.09457861 79.02669525 36.58898544 C79.02972386 34.42722174 79.03775936 32.26545907 79.05088043 30.10373306 C79.06792361 27.08020589 79.06606488 24.05724705 79.05957031 21.03369141 C79.0687851 20.14000854 79.07799988 19.24632568 79.0874939 18.32556152 C79.05232524 13.10234878 78.58468274 9.39913586 74.703125 5.51757812 C72.16349427 5.40125446 69.65068062 5.34958401 67.10986328 5.34057617 C66.31474335 5.33400497 65.51962341 5.32743378 64.70040894 5.32066345 C62.05808428 5.30088434 59.41581655 5.28925826 56.7734375 5.27929688 C55.87342892 5.27522135 54.97342033 5.27114582 54.04613876 5.26694679 C49.28352841 5.2460673 44.52094705 5.23177321 39.75830078 5.22241211 C34.829372 5.21133792 29.90089348 5.17693193 24.9721241 5.13724041 C21.19065489 5.11114377 17.40929412 5.10272654 13.62774277 5.09913063 C11.81040274 5.09424736 9.99306809 5.08258422 8.17581558 5.06409264 C5.63523538 5.03984602 3.0958353 5.04063912 0.55517578 5.04760742 C-0.57642975 5.02839233 -0.57642975 5.02839233 -1.730896 5.00878906 C-5.9932138 5.04041969 -5.9932138 5.04041969 -9.28762817 7.54695129 Z M-26.08203125 20.16601562 C-31.48028748 26.24071182 -32.76824696 31.42715442 -32.609375 39.50976562 C-31.98592546 45.51046749 -29.69428457 49.12016855 -25.484375 53.33007812 C-18.88919403 57.85618271 -13.21577001 59.53182084 -5.296875 58.51757812 C-1.7920985 57.18772244 -1.7920985 57.18772244 0.703125 55.51757812 C0.703125 51.23628827 -1.85323043 49.43487525 -4.671875 46.51757812 C-12.50908625 38.2825389 -12.50908625 38.2825389 -12.7109375 32.19335938 C-12.74960937 31.16533203 -12.78828125 30.13730469 -12.828125 29.078125 C-12.8590625 28.00626953 -12.89 26.93441406 -12.921875 25.83007812 C-12.96054687 24.74662109 -12.99921875 23.66316406 -13.0390625 22.546875 C-13.13338009 19.87061345 -13.21897505 17.1943597 -13.296875 14.51757812 C-18.29113417 14.51757812 -22.4335459 16.79695475 -26.08203125 20.16601562 Z M-8.296875 14.51757812 C-8.296875 20.78757812 -8.296875 27.05757812 -8.296875 33.51757812 C-1.696875 33.51757812 4.903125 33.51757812 11.703125 33.51757812 C8.41339286 23.64838169 5.86385579 20.71012764 -2.33203125 15.43554688 C-4.53942364 14.23539156 -4.53942364 14.23539156 -8.296875 14.51757812 Z M-4.296875 38.51757812 C-0.82598657 43.84842366 -0.82598657 43.84842366 3.453125 47.89257812 C4.06671875 48.3953125 4.6803125 48.89804687 5.3125 49.41601562 C5.77140625 49.77953125 6.2303125 50.14304687 6.703125 50.51757812 C7.3425 49.46570312 7.981875 48.41382813 8.640625 47.33007812 C9.00027344 46.73839844 9.35992187 46.14671875 9.73046875 45.53710938 C10.99861894 43.11825433 10.99861894 43.11825433 11.703125 38.51757812 C6.423125 38.51757812 1.143125 38.51757812 -4.296875 38.51757812 Z " fill="#000000" transform="translate(41.296875,3.482421875)"/>
<path d="M0 0 C1.2375 0.01289062 2.475 0.02578125 3.75 0.0390625 C7 0.375 7 0.375 10 2.375 C11.51253116 6.04914708 11.16183601 10.1468706 11.16796875 14.0625 C11.17296135 15.17177856 11.17296135 15.17177856 11.17805481 16.3034668 C11.18310616 17.8634377 11.18546369 19.42341936 11.18530273 20.98339844 C11.18749239 23.36671726 11.20567528 25.7495753 11.22460938 28.1328125 C11.22754306 29.65104009 11.22952802 31.16926987 11.23046875 32.6875 C11.23765427 33.39801514 11.24483978 34.10853027 11.25224304 34.84057617 C11.23541156 38.49226411 11.13633473 41.33181489 9 44.375 C6.33770478 45.70614761 4.29402672 45.51679023 1.31274414 45.53613281 C-0.47437233 45.55054413 -0.47437233 45.55054413 -2.29759216 45.56524658 C-4.2366317 45.5716214 -4.2366317 45.5716214 -6.21484375 45.578125 C-7.55001325 45.58387633 -8.88518273 45.58963406 -10.22035217 45.59539795 C-13.0205219 45.60590584 -15.82066293 45.61175008 -18.62084961 45.61523438 C-22.21011373 45.62072301 -25.79899923 45.64475923 -29.38814449 45.67320633 C-32.14621595 45.69182213 -34.90419593 45.69703769 -37.66232491 45.69857025 C-39.62941497 45.70307252 -41.59645609 45.72172278 -43.5634613 45.74053955 C-44.75802444 45.73753845 -45.95258759 45.73453735 -47.18334961 45.73144531 C-48.76314857 45.73691376 -48.76314857 45.73691376 -50.37486267 45.74249268 C-53 45.375 -53 45.375 -54.83828735 43.98478699 C-57.22024083 40.68411042 -56.46799102 36.35420958 -56.4375 32.4375 C-56.4674707 31.0772168 -56.4674707 31.0772168 -56.49804688 29.68945312 C-56.49323327 23.14777063 -56.49323327 23.14777063 -54.33203125 19.76171875 C-51.41859861 18.02927555 -49.61721945 17.96465622 -46.25 18.125 C-45.26515625 18.16109375 -44.2803125 18.1971875 -43.265625 18.234375 C-42.51796875 18.28078125 -41.7703125 18.3271875 -41 18.375 C-41.0825 17.3025 -41.165 16.23 -41.25 15.125 C-41 11.375 -41 11.375 -39.390625 9.171875 C-36.27885605 6.8329637 -34.36137955 6.8395745 -30.5 6.875 C-29.3759375 6.8646875 -28.251875 6.854375 -27.09375 6.84375 C-23.39736855 7.47848217 -22.19331603 8.37249942 -20 11.375 C-19.75 15.125 -19.75 15.125 -20 18.375 C-16.7 18.375 -13.4 18.375 -10 18.375 C-10.03480469 17.41078125 -10.06960937 16.4465625 -10.10546875 15.453125 C-10.13253906 14.18984375 -10.15960938 12.9265625 -10.1875 11.625 C-10.22230469 10.37203125 -10.25710937 9.1190625 -10.29296875 7.828125 C-10 4.375 -10 4.375 -8.92578125 1.9453125 C-6.02280535 -0.42181998 -3.68418343 -0.0844292 0 0 Z M-5 6.375 C-5.10082764 8.81160446 -5.13972603 11.21924701 -5.1328125 13.65625 C-5.13376923 14.38493286 -5.13472595 15.11361572 -5.13571167 15.86437988 C-5.13639335 17.4077971 -5.13453988 18.95121717 -5.13037109 20.49462891 C-5.12502262 22.864974 -5.13031642 25.23512959 -5.13671875 27.60546875 C-5.13605797 29.10156292 -5.1347768 30.59765697 -5.1328125 32.09375 C-5.13483673 32.80728638 -5.13686096 33.52082275 -5.13894653 34.25598145 C-5.41648651 37.59986429 -5.41648651 37.59986429 -4 40.375 C-2.50261876 40.4729057 -1.00057108 40.50474864 0.5 40.5 C1.3146875 40.50257812 2.129375 40.50515625 2.96875 40.5078125 C4.99530377 40.5995178 4.99530377 40.5995178 6 39.375 C6.10082764 36.93839554 6.13972603 34.53075299 6.1328125 32.09375 C6.13376923 31.36506714 6.13472595 30.63638428 6.13571167 29.88562012 C6.13639335 28.3422029 6.13453988 26.79878283 6.13037109 25.25537109 C6.12502262 22.885026 6.13031642 20.51487041 6.13671875 18.14453125 C6.13605797 16.64843708 6.1347768 15.15234303 6.1328125 13.65625 C6.13584885 12.58594543 6.13584885 12.58594543 6.13894653 11.49401855 C6.41648651 8.15013571 6.41648651 8.15013571 5 5.375 C3.50261876 5.2770943 2.00057108 5.24525136 0.5 5.25 C-0.3146875 5.24742188 -1.129375 5.24484375 -1.96875 5.2421875 C-3.99530377 5.1504822 -3.99530377 5.1504822 -5 6.375 Z M-36 13.375 C-36.09971786 15.28958282 -36.13080589 17.20782317 -36.1328125 19.125 C-36.13410156 20.2903125 -36.13539062 21.455625 -36.13671875 22.65625 C-36.13285156 23.8834375 -36.12898438 25.110625 -36.125 26.375 C-36.12886719 27.6021875 -36.13273437 28.829375 -36.13671875 30.09375 C-36.13542969 31.2590625 -36.13414063 32.424375 -36.1328125 33.625 C-36.13168457 34.70265625 -36.13055664 35.7803125 -36.12939453 36.890625 C-36.28092371 39.31719997 -36.28092371 39.31719997 -35 40.375 C-33.50261876 40.4729057 -32.00057108 40.50474864 -30.5 40.5 C-29.6853125 40.50257812 -28.870625 40.50515625 -28.03125 40.5078125 C-26.00469623 40.5995178 -26.00469623 40.5995178 -25 39.375 C-24.90028214 37.46041718 -24.86919411 35.54217683 -24.8671875 33.625 C-24.86589844 32.4596875 -24.86460938 31.294375 -24.86328125 30.09375 C-24.86714844 28.8665625 -24.87101562 27.639375 -24.875 26.375 C-24.87113281 25.1478125 -24.86726563 23.920625 -24.86328125 22.65625 C-24.86457031 21.4909375 -24.86585937 20.325625 -24.8671875 19.125 C-24.86831543 18.04734375 -24.86944336 16.9696875 -24.87060547 15.859375 C-24.71907629 13.43280003 -24.71907629 13.43280003 -26 12.375 C-27.49738124 12.2770943 -28.99942892 12.24525136 -30.5 12.25 C-31.3146875 12.24742188 -32.129375 12.24484375 -32.96875 12.2421875 C-34.99530377 12.1504822 -34.99530377 12.1504822 -36 13.375 Z M-51 24.375 C-51.07319621 27.07154854 -51.09242537 29.74191458 -51.0625 32.4375 C-51.05798828 33.19611328 -51.05347656 33.95472656 -51.04882812 34.73632812 C-51.0370068 36.61591871 -51.01907078 38.49546899 -51 40.375 C-47.7 40.375 -44.4 40.375 -41 40.375 C-40.97315321 37.72909986 -40.95323643 35.08346904 -40.9375 32.4375 C-40.92912109 31.68275391 -40.92074219 30.92800781 -40.91210938 30.15039062 C-40.90347559 28.22505687 -40.94775667 26.29964419 -41 24.375 C-41.97910585 23.17804724 -41.97910585 23.17804724 -43.8125 23.2421875 C-44.534375 23.24476562 -45.25625 23.24734375 -46 23.25 C-46.721875 23.24742188 -47.44375 23.24484375 -48.1875 23.2421875 C-50.02089415 23.17804724 -50.02089415 23.17804724 -51 24.375 Z M-20 24.375 C-20.07319621 27.07154854 -20.09242537 29.74191458 -20.0625 32.4375 C-20.05798828 33.19611328 -20.05347656 33.95472656 -20.04882812 34.73632812 C-20.0370068 36.61591871 -20.01907078 38.49546899 -20 40.375 C-16.7 40.375 -13.4 40.375 -10 40.375 C-9.97315321 37.72909986 -9.95323643 35.08346904 -9.9375 32.4375 C-9.92912109 31.68275391 -9.92074219 30.92800781 -9.91210938 30.15039062 C-9.90347559 28.22505687 -9.94775667 26.29964419 -10 24.375 C-10.97910585 23.17804724 -10.97910585 23.17804724 -12.8125 23.2421875 C-13.534375 23.24476562 -14.25625 23.24734375 -15 23.25 C-15.721875 23.24742188 -16.44375 23.24484375 -17.1875 23.2421875 C-19.02089415 23.17804724 -19.02089415 23.17804724 -20 24.375 Z " fill="#000000" transform="translate(98,67.625)"/>
<path d="M0 0 C0.53625 0.27585938 1.0725 0.55171875 1.625 0.8359375 C0.71913095 5.91423105 -2.49386598 8.58110812 -6 12.1484375 C-6.90685547 13.13553711 -6.90685547 13.13553711 -7.83203125 14.14257812 C-9.60683011 15.95332707 -11.22907539 17.48364157 -13.375 18.8359375 C-17.40513714 18.85703769 -20.50664446 18.05343892 -24.0625 16.2109375 C-27.51711586 14.77694601 -28.07366987 14.60199639 -31.375 15.8359375 C-34.2110867 18.13130565 -36.907682 20.51337443 -39.59765625 22.97460938 C-43.95999549 26.8359375 -43.95999549 26.8359375 -48.375 26.8359375 C-47.98165902 21.83871914 -45.82822191 19.97662544 -42.125 16.7734375 C-41.17109375 15.93683594 -40.2171875 15.10023437 -39.234375 14.23828125 C-38.29078125 13.44550781 -37.3471875 12.65273438 -36.375 11.8359375 C-35.49070312 11.0728125 -34.60640625 10.3096875 -33.6953125 9.5234375 C-31.375 7.8359375 -31.375 7.8359375 -28.5 7.8984375 C-25.375 8.8359375 -25.375 8.8359375 -21.75 10.4609375 C-18.69850041 11.97211846 -18.69850041 11.97211846 -16.5390625 11.7734375 C-12.60021536 10.06707773 -9.77625911 6.63300739 -6.796875 3.609375 C-2.87023798 -0.19827302 -2.87023798 -0.19827302 0 0 Z " fill="#000000" transform="translate(98.375,51.1640625)"/>
<path d="M0 0 C1.32751785 0.00212242 1.32751785 0.00212242 2.68185425 0.00428772 C5.51449941 0.00989485 8.34706614 0.02244854 11.1796875 0.03515625 C13.09765511 0.04017033 15.01562396 0.0447334 16.93359375 0.04882812 C21.64065532 0.05986659 26.3476581 0.077136 31.0546875 0.09765625 C31.7146875 1.41765625 32.3746875 2.73765625 33.0546875 4.09765625 C32.0546875 5.09765625 32.0546875 5.09765625 30.30198669 5.21791077 C29.54031693 5.21569016 28.77864716 5.21346954 27.99389648 5.21118164 C27.13307968 5.21110611 26.27226288 5.21103058 25.38536072 5.21095276 C24.44994949 5.20579147 23.51453827 5.20063019 22.55078125 5.1953125 C21.59776627 5.19389755 20.64475128 5.1924826 19.66285706 5.19102478 C16.60593585 5.18540777 13.54908673 5.17285241 10.4921875 5.16015625 C8.42513126 5.15514344 6.35807388 5.15058016 4.29101562 5.14648438 C-0.78778838 5.13543281 -5.8665382 5.1181568 -10.9453125 5.09765625 C-10.9453125 3.77765625 -10.9453125 2.45765625 -10.9453125 1.09765625 C-7.56138242 -0.59430879 -3.72053459 -0.02220924 0 0 Z " fill="#000000" transform="translate(79.9453125,22.90234375)"/>
<path d="M0 0 C9.24 0 18.48 0 28 0 C28.66 1.32 29.32 2.64 30 4 C29 5 29 5 26.13256836 5.11352539 C24.88096924 5.10828857 23.62937012 5.10305176 22.33984375 5.09765625 C21.34314415 5.09553383 21.34314415 5.09553383 20.3263092 5.09336853 C18.19666101 5.08775518 16.06711661 5.07520054 13.9375 5.0625 C12.49674631 5.05748671 11.05599097 5.05292351 9.61523438 5.04882812 C6.07678898 5.03778145 2.53840461 5.02050792 -1 5 C-0.67 3.35 -0.34 1.7 0 0 Z " fill="#000000" transform="translate(83,37)"/>
</svg>
