<?xml version="1.0" encoding="UTF-8"?>
<svg version="1.1" xmlns="http://www.w3.org/2000/svg" width="128" height="128">
<path d="M0 0 C0.90748993 -0.00817749 1.81497986 -0.01635498 2.74996948 -0.02478027 C5.76201717 -0.04965223 8.77401765 -0.06615545 11.78613281 -0.08056641 C12.81387062 -0.08589008 13.84160843 -0.09121376 14.90048981 -0.09669876 C20.34087885 -0.12343895 25.78124489 -0.14281055 31.22167969 -0.15722656 C36.84200918 -0.17387097 42.4617519 -0.21864485 48.08185959 -0.26959801 C52.40216751 -0.30325168 56.7223359 -0.314802 61.04276276 -0.32045364 C63.11441784 -0.32717195 65.18606355 -0.34240897 67.25759125 -0.36634445 C70.15919296 -0.39795631 73.05920886 -0.39803854 75.9609375 -0.390625 C76.81519318 -0.40703033 77.66944885 -0.42343567 78.54959106 -0.44033813 C82.75567997 -0.39639892 85.42385771 -0.0867173 88.75665283 2.6043396 C92.78310662 6.80259205 92.37702528 10.02689751 92.3527832 15.58984375 C92.35292923 16.45820358 92.35307526 17.32656342 92.35322571 18.22123718 C92.35252742 21.09982781 92.34473891 23.97835423 92.33691406 26.85693359 C92.33504959 28.84947677 92.33362582 30.84202041 92.33262634 32.83456421 C92.3288035 38.08546204 92.31897519 43.33633231 92.30792236 48.58721924 C92.29770325 53.94274523 92.29312765 59.29827567 92.28808594 64.65380859 C92.27735273 75.16684155 92.26027908 85.67985403 92.23925781 96.19287109 C93.00625 96.30759766 93.77324219 96.42232422 94.56347656 96.54052734 C97.73772589 97.31439543 99.31274896 98.65675626 101.28222656 101.25146484 C103.19155001 105.12466383 103.10341622 109.0273575 102.23925781 113.19287109 C100.53493955 116.30701146 98.46306382 118.58096809 95.23925781 120.19287109 C92.61679272 120.31195813 90.02005259 120.37120576 87.39648438 120.38574219 C86.18155304 120.39800842 86.18155304 120.39800842 84.94207764 120.41052246 C82.25468691 120.43538689 79.56734909 120.45189608 76.87988281 120.46630859 C75.50376453 120.47429411 75.50376453 120.47429411 74.09984589 120.48244095 C69.24300471 120.50917847 64.38618928 120.52855049 59.52929688 120.54296875 C54.5142762 120.55960838 49.49991373 120.60437854 44.48514175 120.65534019 C40.6280645 120.6890113 36.7711434 120.70054608 32.9139328 120.70619583 C31.06555915 120.71290985 29.21719582 120.72813588 27.36896515 120.75208664 C24.77863623 120.78373577 22.19008119 120.78377565 19.59960938 120.77636719 C18.83886108 120.79277252 18.07811279 120.80917786 17.29431152 120.82608032 C11.49209416 120.75830546 9.1499268 119.17829527 5.23925781 115.19287109 C3.70659199 112.12753945 4.1364931 108.92532837 4.17675781 105.56787109 C4.18126953 104.86146484 4.18578125 104.15505859 4.19042969 103.42724609 C4.20221906 101.68241834 4.22015457 99.9376341 4.23925781 98.19287109 C5.55925781 98.19287109 6.87925781 98.19287109 8.23925781 98.19287109 C8.40361328 99.54832031 8.40361328 99.54832031 8.57128906 100.93115234 C8.72984375 102.11064453 8.88839844 103.29013672 9.05175781 104.50537109 C9.20257812 105.67712891 9.35339844 106.84888672 9.50878906 108.05615234 C10.24177134 111.20366448 10.61155867 112.39229275 13.23925781 114.19287109 C17.32512083 114.70875628 17.32512083 114.70875628 20.92675781 113.00927734 C23.17528491 109.89747645 22.29241689 106.56936954 22.05175781 102.88427734 C22.28199523 99.57941102 22.90115204 98.51741948 25.23925781 96.19287109 C27.991745 95.71185303 27.991745 95.71185303 31.36303711 95.73876953 C32.62411789 95.73907166 33.88519867 95.73937378 35.18449402 95.73968506 C36.56082794 95.76011164 37.93715543 95.78097562 39.31347656 95.80224609 C40.72165627 95.80970761 42.12984636 95.81540097 43.53804016 95.81939697 C47.2422051 95.83466071 50.94574143 95.87394774 54.6496582 95.91821289 C58.43008927 95.95915033 62.21062205 95.97740465 65.99121094 95.99755859 C73.40751297 96.04044227 80.82329727 96.10870129 88.23925781 96.19287109 C88.15486757 85.32686571 88.05998915 74.46100733 87.95173073 63.59521198 C87.90179099 58.54974936 87.85546064 53.50430743 87.81738281 48.45874023 C87.78050082 43.58923439 87.73413275 38.71990272 87.68119431 33.85054588 C87.66266589 31.99305464 87.64755219 30.13552609 87.63591385 28.2779789 C87.61902491 25.67561647 87.58998343 23.07365156 87.55810547 20.47143555 C87.55594528 19.70394989 87.5537851 18.93646423 87.55155945 18.14572144 C87.48840864 14.10859884 87.3789337 10.68169712 85.23925781 7.19287109 C81.29153261 4.83171189 77.4876414 4.95021692 72.97045898 4.96582031 C72.2577182 4.96552826 71.54497742 4.96523621 70.81063843 4.9649353 C68.46770825 4.96632252 66.12510081 4.98185474 63.78222656 4.99755859 C62.15269647 5.00129089 60.52316413 5.00413684 58.89363098 5.00613403 C54.61432652 5.01375342 50.33515881 5.03338729 46.0559082 5.05554199 C41.68540293 5.07603698 37.31487546 5.08514355 32.94433594 5.09521484 C24.37591396 5.11663485 15.80760292 5.15075025 7.23925781 5.19287109 C7.56925781 5.85287109 7.89925781 6.51287109 8.23925781 7.19287109 C8.32593036 9.81914242 8.35485917 12.41849592 8.33691406 15.04443359 C8.33549911 15.81846527 8.33408417 16.59249695 8.33262634 17.38998413 C8.32702185 19.86598551 8.31446864 22.34189697 8.30175781 24.81787109 C8.29674339 26.49495312 8.29218038 28.17203657 8.28808594 29.84912109 C8.27705096 33.96373915 8.25978335 38.07828987 8.23925781 42.19287109 C6.91925781 42.19287109 5.59925781 42.19287109 4.23925781 42.19287109 C4.23925781 36.25287109 4.23925781 30.31287109 4.23925781 24.19287109 C2.21800781 24.29599609 0.19675781 24.39912109 -1.88574219 24.50537109 C-9.28218331 24.52954247 -9.28218331 24.52954247 -12.51074219 21.81787109 C-16.01351976 17.73129726 -16.15057493 15.00522739 -16.12011719 9.74365234 C-15.54114184 5.63418605 -13.76159289 3.97937532 -10.76074219 1.19287109 C-7.42340568 -0.47579716 -3.67112741 0.01813506 0 0 Z M-9.13574219 6.81787109 C-11.24780725 9.90473541 -11.37269364 11.5211624 -10.76074219 15.19287109 C-8.52867788 18.04067728 -7.2108122 19.04284776 -3.76074219 20.19287109 C-2.36634554 20.25952485 -0.96904344 20.27825308 0.42675781 20.25537109 C1.68488281 20.23474609 2.94300781 20.21412109 4.23925781 20.19287109 C4.52973504 14.57697811 4.34767873 11.09461177 1.23925781 6.19287109 C-2.51105267 4.31771585 -5.68981926 4.46013436 -9.13574219 6.81787109 Z M27.23925781 101.19287109 C27.25085937 102.02431641 27.26246094 102.85576172 27.27441406 103.71240234 C27.2834375 104.79908203 27.29246094 105.88576172 27.30175781 107.00537109 C27.31335937 108.08431641 27.32496094 109.16326172 27.33691406 110.27490234 C27.23925781 113.19287109 27.23925781 113.19287109 26.23925781 116.19287109 C34.48016457 116.26249877 42.72094763 116.31574685 50.96207619 116.34830761 C54.78911381 116.36393818 58.61594961 116.38512828 62.44287109 116.41918945 C66.13871611 116.45187671 69.83436746 116.46974373 73.53034592 116.47750282 C74.93770774 116.4830296 76.34505942 116.4938221 77.75233841 116.51006126 C79.72915487 116.53195745 81.70616778 116.53309754 83.68310547 116.53344727 C85.36854965 116.54344002 85.36854965 116.54344002 87.08804321 116.55363464 C90.71772064 116.13809477 93.125127 115.07551856 96.23925781 113.19287109 C97.65967602 110.35203468 97.55378053 108.33809832 97.23925781 105.19287109 C95.0071935 102.34506491 93.68932783 101.34289443 90.23925781 100.19287109 C88.27153882 100.0990451 86.30076466 100.06493999 84.33081055 100.06347656 C83.11622665 100.0603244 81.90164276 100.05717224 80.6502533 100.05392456 C78.68143944 100.05696091 78.68143944 100.05696091 76.67285156 100.06005859 C75.31429527 100.059385 73.9557391 100.0584145 72.59718323 100.05715942 C69.75170747 100.05568559 66.90626312 100.05782727 64.06079102 100.0625 C60.40994237 100.06820254 56.75916715 100.064913 53.10832119 100.05892754 C50.30397486 100.05531808 47.499646 100.05646219 44.69529915 100.05905533 C42.69330421 100.06004845 40.6913086 100.05700732 38.6893158 100.05392456 C37.47788406 100.05707672 36.26645233 100.06022888 35.01831055 100.06347656 C33.41305763 100.06466995 33.41305763 100.06466995 31.77537537 100.06588745 C29.24558178 100.02223992 29.24558178 100.02223992 27.23925781 101.19287109 Z " fill="#000000" transform="translate(21.7607421875,3.80712890625)"/>
<path d="M0 0 C5.25270679 3.84037678 9.71819611 9.06525446 11.12109375 15.55078125 C12.11204671 24.57946379 11.5816991 32.08199359 6.12109375 39.55078125 C1.3614144 44.87574318 -3.96125952 48.12079563 -11.08203125 48.90234375 C-20.05640794 49.27141985 -26.91060267 47.99166407 -33.71875 41.90625 C-40.2304112 34.85327711 -41.46916759 28.43793886 -41.21875 18.9921875 C-40.52684064 11.9856111 -38.19581837 7.46655257 -33.06640625 2.67578125 C-23.29823595 -5.02089407 -11.04496463 -6.43836198 0 0 Z M-26.87890625 4.55078125 C-28.17828125 5.38609375 -28.17828125 5.38609375 -29.50390625 6.23828125 C-34.47174639 11.07538876 -36.12763022 15.75971383 -36.31640625 22.67578125 C-36.07921142 28.96144416 -34.6903531 32.55354498 -30.44140625 37.23828125 C-24.3185585 42.763778 -20.18624221 43.92955772 -11.953125 43.8203125 C-6.4862019 43.34100158 -2.81320795 41.65438726 0.90625 37.609375 C6.19965956 30.81428897 6.86846498 25.07514591 6.12109375 16.55078125 C4.37440448 9.84215941 -0.05622523 6.00612994 -5.87890625 2.55078125 C-12.72687152 0.26812616 -20.83953797 0.42633462 -26.87890625 4.55078125 Z " fill="#000000" transform="translate(44.87890625,51.44921875)"/>
<path d="M0 0 C1.32 0 2.64 0 4 0 C4 1.32 4 2.64 4 4 C4.804375 4.28875 5.60875 4.5775 6.4375 4.875 C9 6 9 6 10 8 C10.039992 9.99960012 10.04346799 12.00047242 10 14 C8.68 14 7.36 14 6 14 C5.34 12.68 4.68 11.36 4 10 C2.68 10 1.36 10 0 10 C0 11.32 0 12.64 0 14 C0.63808594 14.26554687 1.27617187 14.53109375 1.93359375 14.8046875 C2.75988281 15.15789062 3.58617187 15.51109375 4.4375 15.875 C5.26121094 16.22304687 6.08492187 16.57109375 6.93359375 16.9296875 C9 18 9 18 10 20 C10.58252427 27.22330097 10.58252427 27.22330097 8.125 30.5 C6 32 6 32 4 32 C4 33.32 4 34.64 4 36 C2.68 36 1.36 36 0 36 C0 34.68 0 33.36 0 32 C-0.804375 31.71125 -1.60875 31.4225 -2.4375 31.125 C-5 30 -5 30 -6 28 C-6.039992 26.00039988 -6.04346799 23.99952758 -6 22 C-4.68 22 -3.36 22 -2 22 C-1.34 23.32 -0.68 24.64 0 26 C1.32 26 2.64 26 4 26 C4 24.68 4 23.36 4 22 C3.36191406 21.73445313 2.72382813 21.46890625 2.06640625 21.1953125 C0.82697266 20.66550781 0.82697266 20.66550781 -0.4375 20.125 C-1.26121094 19.77695313 -2.08492187 19.42890625 -2.93359375 19.0703125 C-5 18 -5 18 -6 16 C-6.58252427 8.77669903 -6.58252427 8.77669903 -4.125 5.5 C-2 4 -2 4 0 4 C0 2.68 0 1.36 0 0 Z " fill="#000000" transform="translate(28,56)"/>
<path d="M0 0 C2.4375 0.25 2.4375 0.25 5 1 C5.66 1.99 6.32 2.98 7 4 C7.66 4 8.32 4 9 4 C9.45375 3.34 9.9075 2.68 10.375 2 C10.91125 1.34 11.4475 0.68 12 0 C13.32 0 14.64 0 16 0 C15.25 5.75 15.25 5.75 13 8 C13.35299007 11.44165321 14.04581692 13.06872538 16 16 C16 17.32 16 18.64 16 20 C13.625 19.6875 13.625 19.6875 11 19 C10.34 18.01 9.68 17.02 9 16 C8.34 16 7.68 16 7 16 C6.319375 16.99 6.319375 16.99 5.625 18 C5.08875 18.66 4.5525 19.32 4 20 C2.68 20 1.36 20 0 20 C0.75 14.25 0.75 14.25 3 12 C2.65561395 7.86736741 0.93570031 4.61891796 -1 1 C-0.67 0.67 -0.34 0.34 0 0 Z " fill="#000000" transform="translate(78,26)"/>
<path d="M0 0 C2.32421875 0.078125 2.32421875 0.078125 5 1 C6.58203125 3.984375 6.58203125 3.984375 7.8125 7.75 C8.23144531 8.98234375 8.65039062 10.2146875 9.08203125 11.484375 C9.87962007 14.53897047 10.20860127 16.87694098 10 20 C8.35 19.67 6.7 19.34 5 19 C5 18.01 5 17.02 5 16 C3.02 16 1.04 16 -1 16 C-1.33 17.32 -1.66 18.64 -2 20 C-3.32 20 -4.64 20 -6 20 C-5.57534294 12.63927766 -3.01651083 6.67862176 0 0 Z " fill="#000000" transform="translate(66,26)"/>
<path d="M0 0 C12.54 0 25.08 0 38 0 C38 1.32 38 2.64 38 4 C25.46 4 12.92 4 0 4 C0 2.68 0 1.36 0 0 Z " fill="#000000" transform="translate(60,84)"/>
<path d="M0 0 C12.54 0 25.08 0 38 0 C38 1.32 38 2.64 38 4 C25.46 4 12.92 4 0 4 C0 2.68 0 1.36 0 0 Z " fill="#000000" transform="translate(60,72)"/>
<path d="M0 0 C5.28 0 10.56 0 16 0 C16 1.32 16 2.64 16 4 C14.02 4 12.04 4 10 4 C10 9.28 10 14.56 10 20 C8.68 20 7.36 20 6 20 C6 14.72 6 9.44 6 4 C4.02 4 2.04 4 0 4 C0 2.68 0 1.36 0 0 Z " fill="#000000" transform="translate(46,26)"/>
<path d="M0 0 C8.25 0 16.5 0 25 0 C25 1.32 25 2.64 25 4 C16.75 4 8.5 4 0 4 C0 2.68 0 1.36 0 0 Z " fill="#000000" transform="translate(58,60)"/>
</svg>
