<?xml version="1.0" encoding="UTF-8"?>
<svg version="1.1" xmlns="http://www.w3.org/2000/svg" width="128" height="128">
<path d="M0 0 C0.93199219 -0.00257812 1.86398437 -0.00515625 2.82421875 -0.0078125 C3.80003906 -0.00007813 4.77585937 0.00765625 5.78125 0.015625 C6.75707031 0.00789063 7.73289062 0.00015625 8.73828125 -0.0078125 C9.67027344 -0.00523438 10.60226563 -0.00265625 11.5625 0 C12.41908203 0.00225586 13.27566406 0.00451172 14.15820312 0.00683594 C16.28125 0.265625 16.28125 0.265625 18.28125 2.265625 C18.40625 5.890625 18.40625 5.890625 18.28125 9.265625 C19.10302734 9.36037109 19.10302734 9.36037109 19.94140625 9.45703125 C25.52773597 10.31996023 29.65475263 11.95537294 34.59375 14.703125 C43.24859203 19.29546618 52.6694908 19.60923066 62.2902832 20.29077148 C63.50675537 20.38044189 64.72322754 20.4701123 65.9765625 20.5625 C67.6164917 20.66062988 67.6164917 20.66062988 69.28955078 20.76074219 C72.59804993 21.31908854 74.57549249 22.30994266 77.28125 24.265625 C78.64453125 26.30859375 78.64453125 26.30859375 79.59375 28.453125 C79.91988281 29.16855469 80.24601562 29.88398437 80.58203125 30.62109375 C80.81277344 31.16378906 81.04351562 31.70648438 81.28125 32.265625 C85.62048211 31.7114817 88.25765837 30.17742612 91.80859375 27.66796875 C92.84822266 26.94931641 93.88785156 26.23066406 94.95898438 25.49023438 C97.13138496 23.9660396 99.30066715 22.43739049 101.46679688 20.90429688 C102.50771484 20.18693359 103.54863281 19.46957031 104.62109375 18.73046875 C105.56331787 18.066521 106.50554199 17.40257324 107.47631836 16.71850586 C110.72202938 15.03731287 112.67374992 14.86950123 116.28125 15.265625 C119.15625 16.765625 119.15625 16.765625 121.28125 19.265625 C122.07932981 24.21371983 122.02675128 26.12407617 119.28125 30.328125 C116.58244302 33.13969551 113.6276696 35.68045711 110.66015625 38.203125 C108.84195092 39.77950006 107.06847426 41.37613085 105.30859375 43.015625 C104.78789307 43.5000708 104.26719238 43.9845166 103.73071289 44.48364258 C102.70744047 45.43868626 101.68693026 46.39670114 100.66967773 47.3581543 C95.17285252 52.47043174 90.68774728 55.5793652 83.21875 56.828125 C82.53828613 56.94325439 81.85782227 57.05838379 81.15673828 57.17700195 C78.86728978 57.55652935 76.57468989 57.91107008 74.28125 58.265625 C73.01063721 58.47300293 73.01063721 58.47300293 71.71435547 58.68457031 C65.58427978 59.68314488 59.4488365 60.53495247 53.28125 61.265625 C52.05664062 61.4203125 50.83203125 61.575 49.5703125 61.734375 C38.35620953 62.48020608 28.3824218 57.61494146 18.28125 53.265625 C18.136875 53.905 17.9925 54.544375 17.84375 55.203125 C17.28125 57.265625 17.28125 57.265625 16.28125 58.265625 C12.80916193 58.51661424 9.3238438 58.45084596 5.84375 58.453125 C4.86341797 58.46537109 3.88308594 58.47761719 2.87304688 58.49023438 C1.93654297 58.49216797 1.00003906 58.49410156 0.03515625 58.49609375 C-0.82779053 58.50020264 -1.6907373 58.50431152 -2.57983398 58.50854492 C-4.71875 58.265625 -4.71875 58.265625 -6.71875 56.265625 C-6.97271729 53.98852539 -6.97271729 53.98852539 -6.97753906 51.11328125 C-6.98384338 50.03876709 -6.99014771 48.96425293 -6.99664307 47.85717773 C-6.9925946 46.69259033 -6.98854614 45.52800293 -6.984375 44.328125 C-6.98628845 43.13711182 -6.9882019 41.94609863 -6.99017334 40.71899414 C-6.9915363 38.19710072 -6.98783216 35.67520031 -6.97949219 33.15332031 C-6.96879453 29.28174151 -6.97938406 25.41062678 -6.9921875 21.5390625 C-6.99086593 19.09374897 -6.98830358 16.64843573 -6.984375 14.203125 C-6.98842346 13.0385376 -6.99247192 11.8739502 -6.99664307 10.67407227 C-6.99033875 9.59955811 -6.98403442 8.52504395 -6.97753906 7.41796875 C-6.97594788 6.46913818 -6.97435669 5.52030762 -6.97271729 4.54272461 C-6.46832361 0.02027344 -3.92213553 0.01032918 0 0 Z M-2.71875 5.265625 C-2.71875 21.105625 -2.71875 36.945625 -2.71875 53.265625 C2.89125 53.265625 8.50125 53.265625 14.28125 53.265625 C14.28125 43.695625 14.28125 34.125625 14.28125 24.265625 C15.60125 24.265625 16.92125 24.265625 18.28125 24.265625 C18.28125 31.855625 18.28125 39.445625 18.28125 47.265625 C22.73625 49.245625 22.73625 49.245625 27.28125 51.265625 C29.13169922 52.12607422 29.13169922 52.12607422 31.01953125 53.00390625 C32.19902344 53.52339844 33.37851562 54.04289062 34.59375 54.578125 C35.76550781 55.11050781 36.93726563 55.64289063 38.14453125 56.19140625 C43.49940326 57.98848782 48.78901875 56.98812633 54.28125 56.265625 C55.42182861 56.12713135 56.56240723 55.9886377 57.73754883 55.84594727 C61.34053908 55.39294767 64.93541884 54.89713455 68.53125 54.390625 C69.74554688 54.22949219 70.95984375 54.06835938 72.2109375 53.90234375 C81.85190088 52.54756785 89.16647567 51.1013693 96.28125 44.015625 C97.31447552 43.02798775 98.34833053 42.04100863 99.3828125 41.0546875 C99.8768457 40.57676758 100.37087891 40.09884766 100.87988281 39.60644531 C102.75669314 37.81072366 104.69651474 36.09506907 106.65625 34.390625 C107.27371094 33.85050781 107.89117187 33.31039062 108.52734375 32.75390625 C109.68748814 31.76946302 110.86736118 30.80776572 112.06640625 29.87109375 C114.34040549 28.09167591 116.06590371 26.736695 117.28125 24.078125 C117.28125 23.48 117.28125 22.881875 117.28125 22.265625 C116.29125 21.275625 116.29125 21.275625 115.28125 20.265625 C111.20201283 20.55730146 109.00153214 21.98953087 105.921875 24.57421875 C90.1989612 36.83818074 77.20319398 38.50960449 57.98876953 38.2890625 C54.73736471 38.26850838 51.52374988 38.35395027 48.27734375 38.515625 C46.6537294 38.58025958 45.03003703 38.64298474 43.40625 38.703125 C42.34700317 38.75617798 42.34700317 38.75617798 41.26635742 38.81030273 C39.3515625 38.82421875 39.3515625 38.82421875 36.28125 38.265625 C34.3359375 35.73828125 34.3359375 35.73828125 33.28125 33.265625 C36.04401177 33.78830966 38.6073376 34.37432087 41.28125 35.265625 C43.79035588 35.23695055 46.25593931 35.14777834 48.7578125 34.99609375 C49.48366547 34.95503006 50.20951843 34.91396637 50.95736694 34.87165833 C52.48900927 34.7829509 54.02047434 34.69113588 55.55175781 34.59643555 C57.9037915 34.45327464 60.25634422 34.32673565 62.609375 34.20117188 C64.09641443 34.11298956 65.58339633 34.02383054 67.0703125 33.93359375 C68.1312059 33.87875069 68.1312059 33.87875069 69.21353149 33.82279968 C70.90923396 33.71047432 72.5977396 33.49760896 74.28125 33.265625 C74.61125 32.605625 74.94125 31.945625 75.28125 31.265625 C72.48704508 27.34959196 72.48704508 27.34959196 68.28125 25.265625 C66.60402517 25.07417867 64.92186969 24.92433211 63.23828125 24.80078125 C61.75038086 24.68379883 61.75038086 24.68379883 60.23242188 24.56445312 C58.15968615 24.40838528 56.08677005 24.25469273 54.01367188 24.10351562 C45.65820584 23.44004092 38.67538391 22.2877145 31.21875 18.203125 C26.75658768 15.87872866 23.29586447 14.49356202 18.28125 14.265625 C18.28125 16.245625 18.28125 18.225625 18.28125 20.265625 C16.96125 20.265625 15.64125 20.265625 14.28125 20.265625 C14.28125 15.315625 14.28125 10.365625 14.28125 5.265625 C8.67125 5.265625 3.06125 5.265625 -2.71875 5.265625 Z " fill="#000000" transform="translate(6.71875,62.734375)"/>
<path d="M0 0 C14.52 0 29.04 0 44 0 C46.475 5.94 46.475 5.94 49 12 C52.53112022 14.75600252 52.53112022 14.75600252 56.16015625 17.37890625 C58 19 58 19 58.75 22.6875 C58.484375 24.73046875 58.484375 24.73046875 58 27 C57.86078125 27.86238281 57.7215625 28.72476563 57.578125 29.61328125 C54.14807442 46.74035813 44.53614552 61.35727102 30.25 71.3125 C26.94873911 73.22031082 25.2198584 73.98104669 21.375 74.3125 C16.71245056 72.49928633 12.97222228 70.01530911 9 67 C8.32839844 66.51789063 7.65679687 66.03578125 6.96484375 65.5390625 C-6.00114516 55.38280081 -12.0870223 38.86046171 -14.625 23.125 C-14.61328125 21.0234375 -14.61328125 21.0234375 -14 19 C-12.16796875 17.3515625 -12.16796875 17.3515625 -9.8125 15.75 C-3.68202484 11.60688037 -3.68202484 11.60688037 0 0 Z M28.29296875 4.21875 C27.20487663 4.25204407 27.20487663 4.25204407 26.09480286 4.28601074 C23.79234593 4.35662598 21.48992329 4.4282974 19.1875 4.5 C17.62044486 4.54824697 16.05338759 4.5964248 14.48632812 4.64453125 C10.65752696 4.76222039 6.82875617 4.88085638 3 5 C2.62125732 6.02951782 2.62125732 6.02951782 2.23486328 7.07983398 C1.89181152 7.98032471 1.54875977 8.88081543 1.1953125 9.80859375 C0.86031738 10.70118896 0.52532227 11.59378418 0.18017578 12.51342773 C-1.81781584 16.72309771 -4.84739843 18.92369922 -9 21 C-8.93835184 35.8263817 -2.43008332 49.60446482 8 60 C11.94189561 63.55137458 16.10571327 66.90688499 21 69 C29.91915227 67.39477868 37.25554524 59.54663365 42.40625 52.4765625 C47.5290742 44.51609548 51.1135378 36.28139401 53 27 C53.226875 25.906875 53.45375 24.81375 53.6875 23.6875 C52.6920995 19.79638894 50.21035859 18.69214636 46.9765625 16.50390625 C42.86856528 13.37825619 41.72341813 8.9192433 41 4 C36.76081094 3.97128407 32.52950672 4.08561016 28.29296875 4.21875 Z " fill="#000000" transform="translate(42,4)"/>
<path d="M0 0 C1.30582031 -0.00563965 2.61164062 -0.0112793 3.95703125 -0.01708984 C4.65594482 -0.02187347 5.3548584 -0.0266571 6.07495117 -0.03158569 C7.55096694 -0.03498447 9.02705799 -0.02578296 10.50292969 -0.00488281 C12.76277425 0.0218926 15.0176537 -0.00462113 17.27734375 -0.03662109 C18.71225055 -0.03331698 20.14715426 -0.02691069 21.58203125 -0.01708984 C22.88785156 -0.0114502 24.19367188 -0.00581055 25.5390625 0 C28.76953125 0.64697266 28.76953125 0.64697266 30.64306641 3.07104492 C31.2006665 4.34612915 31.2006665 4.34612915 31.76953125 5.64697266 C34.63036879 10.0858851 37.41366495 13.53563959 41.76953125 16.64697266 C41.10953125 19.94697266 40.44953125 23.24697266 39.76953125 26.64697266 C38.44953125 26.64697266 37.12953125 26.64697266 35.76953125 26.64697266 C35.93453125 25.67759766 36.09953125 24.70822266 36.26953125 23.70947266 C36.31867021 19.6800783 34.55476812 17.8598031 31.89453125 14.95947266 C31.17523438 14.23373047 30.4559375 13.50798828 29.71484375 12.76025391 C27.8749108 10.76145124 26.91234515 9.07711973 25.76953125 6.64697266 C21.54129357 6.41433234 17.31469788 6.27245139 13.08203125 6.14697266 C11.88384766 6.07994141 10.68566406 6.01291016 9.45117188 5.94384766 C3.17556077 5.55855851 3.17556077 5.55855851 -2.0793457 8.37329102 C-3.42163712 10.46845302 -3.42163712 10.46845302 -4.33007812 12.66430664 C-5.23046875 14.64697266 -5.23046875 14.64697266 -8.04296875 17.20947266 C-10.6117002 19.57742991 -10.6117002 19.57742991 -10.54296875 23.45947266 C-10.43984375 24.51134766 -10.33671875 25.56322266 -10.23046875 26.64697266 C-11.55046875 26.64697266 -12.87046875 26.64697266 -14.23046875 26.64697266 C-15.25376924 23.65528522 -16.04830525 20.8134029 -16.23046875 17.64697266 C-14.16796875 15.02197266 -14.16796875 15.02197266 -11.23046875 12.64697266 C-10.31784307 11.50949717 -9.44314285 10.3407223 -8.60546875 9.14697266 C-8.02925781 8.32712891 -8.02925781 8.32712891 -7.44140625 7.49072266 C-6.12082815 5.59239118 -6.12082815 5.59239118 -5.10400391 3.07324219 C-3.23046875 0.64697266 -3.23046875 0.64697266 0 0 Z " fill="#000000" transform="translate(51.23046875,10.35302734375)"/>
<path d="M0 0 C1.32 0 2.64 0 4 0 C4.36351562 0.71285156 4.72703125 1.42570312 5.1015625 2.16015625 C9.64984849 10.82522418 14.31660202 18.10572114 23 23 C25.61473418 22.92754457 25.61473418 22.92754457 28 21 C28.59554687 20.5978125 29.19109375 20.195625 29.8046875 19.78125 C36.61569641 14.58686188 40.11836881 7.44323427 44 0 C46.475 0.495 46.475 0.495 49 1 C46.02702503 12.29730489 38.66278878 20.26174816 29.9375 27.5625 C25.93015055 29.52354335 24.25506447 29.370275 20 28 C10.52414167 22.35553565 3.10648821 13.17694905 -1 3 C-0.67 2.01 -0.34 1.02 0 0 Z " fill="#000000" transform="translate(40,41)"/>
<path d="M0 0 C1.32 0.33 2.64 0.66 4 1 C3.43887029 4.78253756 2.42956289 7.27674482 0.27734375 10.42578125 C-0.26083984 11.22177734 -0.79902344 12.01777344 -1.35351562 12.83789062 C-1.91748047 13.65451172 -2.48144531 14.47113281 -3.0625 15.3125 C-3.63033203 16.14845703 -4.19816406 16.98441406 -4.78320312 17.84570312 C-6.18162031 19.90219899 -7.58733754 21.95327542 -9 24 C-12.54329639 23.22727955 -14.48676249 22.07718873 -17.25 19.6875 C-17.95640625 19.09324219 -18.6628125 18.49898437 -19.390625 17.88671875 C-21 16 -21 16 -21 12 C-16.69425578 12.61510632 -15.01554924 13.59067046 -11 16 C-7.37 10.72 -3.74 5.44 0 0 Z " fill="#000000" transform="translate(74,26)"/>
<path d="M0 0 C2.62541413 2.20196024 2.9445448 3.61973579 3.4375 7 C3 10 3 10 1.375 12.375 C-1.71186432 14.48706506 -3.3282913 14.61195145 -7 14 C-9.375 12.375 -9.375 12.375 -11 10 C-11.60605429 6.36367425 -11.47161336 4.71685231 -9.4375 1.625 C-6.07941451 -0.61372366 -3.95254396 -0.57491549 0 0 Z M-6 5 C-5.67 6.32 -5.34 7.64 -5 9 C-4.01 8.67 -3.02 8.34 -2 8 C-2 7.01 -2 6.02 -2 5 C-3.32 5 -4.64 5 -6 5 Z " fill="#000000" transform="translate(16,100)"/>
</svg>
